<svg xmlns="http://www.w3.org/2000/svg" width="26" height="19" viewBox="0 0 26 19">
  <metadata><?xpacket begin="﻿" id="W5M0MpCehiHzreSzNTczkc9d"?>
<x:xmpmeta xmlns:x="adobe:ns:meta/" x:xmptk="Adobe XMP Core 5.6-c138 79.159824, 2016/09/14-01:09:01        ">
   <rdf:RDF xmlns:rdf="http://www.w3.org/1999/02/22-rdf-syntax-ns#">
      <rdf:Description rdf:about=""/>
   </rdf:RDF>
</x:xmpmeta>
                                                                                                    
                                                                                                    
                                                                                                    
                                                                                                    
                                                                                                    
                                                                                                    
                                                                                                    
                                                                                                    
                                                                                                    
                                                                                                    
                                                                                                    
                                                                                                    
                                                                                                    
                                                                                                    
                                                                                                    
                                                                                                    
                                                                                                    
                                                                                                    
                                                                                                    
                                                                                                    
                           
<?xpacket end="w"?></metadata>
<defs>
    <style>
      .cls-1 {
        fill: #2bdafa;
        fill-rule: evenodd;
      }
    </style>
  </defs>
  <path id="Forma_1" data-name="Forma 1" class="cls-1" d="M707.472,1305.79h19.965v2.71a0.437,0.437,0,0,0,.137.32,0.447,0.447,0,0,0,.327.13,0.438,0.438,0,0,0,.333-0.13l4.643-4.51a0.457,0.457,0,0,0,.131-0.33,0.419,0.419,0,0,0-.131-0.32l-4.628-4.51a0.575,0.575,0,0,0-.348-0.14,0.44,0.44,0,0,0-.334.13,0.418,0.418,0,0,0-.13.32v2.71H707.472a0.455,0.455,0,0,0-.326.14,0.422,0.422,0,0,0-.138.32v2.71a0.4,0.4,0,0,0,.138.31A0.455,0.455,0,0,0,707.472,1305.79Zm25.072,5.42H712.579v-2.71a0.438,0.438,0,0,0-.138-0.32,0.484,0.484,0,0,0-.66,0l-4.643,4.51a0.461,0.461,0,0,0-.13.33,0.412,0.412,0,0,0,.13.31l4.629,4.52a0.575,0.575,0,0,0,.348.14,0.491,0.491,0,0,0,.327-0.13,0.441,0.441,0,0,0,.137-0.32v-2.71h19.965a0.456,0.456,0,0,0,.326-0.14,0.422,0.422,0,0,0,.138-0.32v-2.71a0.417,0.417,0,0,0-.138-0.31A0.456,0.456,0,0,0,732.544,1311.21Z" transform="translate(-707 -1299)"/>
</svg>
