<svg xmlns="http://www.w3.org/2000/svg" width="44" height="38" viewBox="0 0 44 38">
  <metadata><?xpacket begin="﻿" id="W5M0MpCehiHzreSzNTczkc9d"?>
<x:xmpmeta xmlns:x="adobe:ns:meta/" x:xmptk="Adobe XMP Core 5.6-c138 79.159824, 2016/09/14-01:09:01        ">
   <rdf:RDF xmlns:rdf="http://www.w3.org/1999/02/22-rdf-syntax-ns#">
      <rdf:Description rdf:about=""/>
   </rdf:RDF>
</x:xmpmeta>
                                                                                                    
                                                                                                    
                                                                                                    
                                                                                                    
                                                                                                    
                                                                                                    
                                                                                                    
                                                                                                    
                                                                                                    
                                                                                                    
                                                                                                    
                                                                                                    
                                                                                                    
                                                                                                    
                                                                                                    
                                                                                                    
                                                                                                    
                                                                                                    
                                                                                                    
                                                                                                    
                           
<?xpacket end="w"?></metadata>
<defs>
    <style>
      .cls-1 {
        fill: #fcfcfc;
        fill-rule: evenodd;
      }
    </style>
  </defs>
  <path id="Forma_1" data-name="Forma 1" class="cls-1" d="M1025.33,553.953a3.964,3.964,0,0,0-2.86-1.558l-33.611-2.337-1.3-4.155a0.83,0.83,0,0,0-.781-0.779l-3.126-1.039a1.232,1.232,0,1,0-.782,2.337l2.605,0.779,1.3,4.415,5.21,17.919a6.25,6.25,0,0,0,2.188,3.275,5.159,5.159,0,0,0-1.93,4,5.209,5.209,0,0,0,10.417,0,5.118,5.118,0,0,0-.72-2.6h10.05a5.126,5.126,0,0,0-.73,2.6,5.21,5.21,0,0,0,10.42,0,5.126,5.126,0,0,0-1.48-3.607,5.473,5.473,0,0,0,2.53-3.664l3.12-12.206A3.843,3.843,0,0,0,1025.33,553.953ZM997.453,579.4a2.6,2.6,0,1,1,0-5.194,2.608,2.608,0,0,1,2.607,2.6A2.459,2.459,0,0,1,997.453,579.4Zm19.017,0a2.6,2.6,0,1,1,2.61-2.6A2.455,2.455,0,0,1,1016.47,579.4Zm3.91-10.388a3.56,3.56,0,0,1-2.83,2.714,4.829,4.829,0,0,0-2.62.143H998.993a5.137,5.137,0,0,0-1.54-.26c-0.122,0-.237.029-0.357,0.037a4.416,4.416,0,0,1-2.511-2.634l-4.689-16.1,32.3,2.338a1.35,1.35,0,0,1,1.04.519,1.561,1.561,0,0,1,.26,1.039Z" transform="translate(-982 -544)"/>
</svg>
