<?xml version="1.0" encoding="iso-8859-1"?>
<!-- Generator: Adobe Illustrator 19.0.0, SVG Export Plug-In . SVG Version: 6.00 Build 0)  -->
<svg version="1.1" id="Capa_1" xmlns="http://www.w3.org/2000/svg" xmlns:xlink="http://www.w3.org/1999/xlink" x="0px" y="0px"
	 viewBox="0 0 380.582 380.582" style="enable-background:new 0 0 380.582 380.582;" xml:space="preserve">
<g>
	<g>
		<path d="M230.057,67.083c-17.283-3.215-35.082-2.287-51.937,2.706c-3.06,0.895-4.815,4.1-3.92,7.16
			c0.895,3.06,4.1,4.815,7.16,3.92c52.799-15.664,108.3,14.44,123.964,67.24c4.486,15.122,5.321,31.093,2.436,46.6
			c-0.584,3.126,1.475,6.134,4.6,6.72c3.128,0.581,6.134-1.484,6.715-4.612c0.002-0.009,0.003-0.019,0.005-0.028
			C330.314,136.389,290.457,78.317,230.057,67.083z"/>
	</g>
</g>
<g>
	<g>
		<path d="M371.2,283.669c-4.765-5.408-10.134-10.252-16-14.44l-5.24-4c-3.44-2.68-6.84-5.36-10.72-8
			c-6.08-4.36-11.12-7.72-17.12-11.76l-1.52-1c-24.52-16.44-41.64-28-70.4-5.72c-4.544,3.585-8.581,7.77-12,12.44
			c-7.28,9.36-12,15.52-49.8-5.52c-3.72-2.08-9.08-5.48-14.12-9c-3.763-2.552-7.357-5.345-10.76-8.36l-1.2-1.24
			c-0.981-1.036-2.038-1.999-3.16-2.88l-12.84-13.16c-9.288-11.01-16.853-23.363-22.44-36.64c-4-10.04-6.52-19.76-4.64-26.36
			c0.415-1.346,1.021-2.626,1.8-3.8c0.988-1.547,2.142-2.982,3.44-4.28c2.116-1.905,4.376-3.643,6.76-5.2
			c14.04-9.84,33.36-23.36,14.52-57c-7.664-13.674-16.539-26.633-26.52-38.72l-3.12-4c-5.17-6.4-10.741-12.466-16.68-18.16
			l-0.84-0.84l-0.28-0.2L98,15.549c-6.92-6.92-13.6-13.44-28-13.44c-18.37,0.656-35.762,8.448-48.48,21.72
			C8.255,36.55,0.526,53.978,0,72.349c0.162,8.635,1.673,17.192,4.48,25.36c2.356,7.101,5.244,14.014,8.64,20.68
			c24.188,48.884,55.013,94.192,91.6,134.64c32.756,36.094,71.6,66.152,114.76,88.8c1.4,0.72,2.56,1.4,3.68,2.04s3.2,1.88,5.08,2.8
			l8.52,4.24l1.08,0.56l38.88,17.84c2.92,1.24,5.08,2.24,7.08,3.16c14.16,6.48,19.72,9.04,40,0.88
			c15.407-6.645,29.18-16.569,40.36-29.08c9.56-10.88,16.32-23.56,16.32-36.6C380.375,298.813,377.081,290.292,371.2,283.669z
			 M355.48,336.829c-9.969,11.179-22.254,20.052-36,26c-15.64,6.28-20,4.32-30.8-0.68c-2.32-1.04-4.88-2.24-7.36-3.28l-38.72-17.76
			l-0.92-0.48l-8.56-4.28c-1.64-0.84-3-1.6-4.32-2.4s-2.76-1.64-4.2-2.36c-41.904-22.041-79.61-51.272-111.4-86.36
			c-35.872-39.732-66.078-84.234-89.76-132.24c-3.135-6.084-5.81-12.395-8-18.88c-2.46-7.014-3.81-14.369-4-21.8
			c0.58-15.303,7.144-29.767,18.28-40.28v0.16c10.593-11.236,25.17-17.871,40.6-18.48c9.48,0,14.48,4.84,19.64,10l0.28,0.32
			l0.24,0.24l0.84,0.84c5.582,5.428,10.819,11.199,15.68,17.28l3.12,4c9.606,11.638,18.147,24.114,25.52,37.28
			c13.76,24.56-0.56,34.6-11,41.92c-2.948,1.925-5.731,4.093-8.32,6.48c-1.916,1.903-3.619,4.009-5.08,6.28
			c-1.382,2.127-2.447,4.445-3.16,6.88c-2.64,9.44,0,21.72,5.12,33.92c6.136,14.416,14.416,27.82,24.56,39.76l13.28,13.64l0.6,0.56
			c0.828,0.645,1.603,1.354,2.32,2.12l1.72,1.68c3.793,3.389,7.802,6.529,12,9.4c5.4,3.76,11.12,7.4,15.12,9.64
			c46.4,25.88,53.6,16.6,64.56,2.52c2.778-3.872,6.045-7.367,9.72-10.4c22.2-17.12,36.48-7.56,56.92,6.16l1.52,1
			c6,4,11,7.36,16.8,11.52c3.68,2.64,7,5.24,10.36,8l5.32,4c5.237,3.673,10.041,7.926,14.32,12.68
			c4.092,4.52,6.445,10.346,6.64,16.44C368.96,317.709,363.36,327.869,355.48,336.829z"/>
	</g>
</g>
<g>
	<g>
		<path d="M219.574,122.527c-8.405-1.538-17.052-1.092-25.254,1.302c-3.06,0.895-4.815,4.1-3.92,7.16
			c0.895,3.06,4.1,4.815,7.16,3.92c22.962-6.72,47.024,6.447,53.743,29.409c1.907,6.518,2.256,13.393,1.017,20.071
			c-0.581,3.128,1.484,6.134,4.612,6.715c0.01,0.002,0.019,0.003,0.028,0.005c3.129,0.573,6.13-1.498,6.704-4.628
			c0.006-0.031,0.011-0.062,0.016-0.092C269.135,156.575,249.389,127.983,219.574,122.527z"/>
	</g>
</g>
<g>
	<g>
		<path d="M324.12,49.429c-44.221-39.808-105.958-53.761-163-36.84c-3.06,0.895-4.815,4.1-3.92,7.16c0.895,3.06,4.1,4.815,7.16,3.92
			c84.382-25.015,173.066,23.113,198.081,107.495c7.164,24.166,8.493,49.686,3.879,74.465c-0.574,3.137,1.503,6.146,4.64,6.72
			s6.146-1.503,6.72-4.64C388.591,149.223,368.304,89.271,324.12,49.429z"/>
	</g>
</g>
<g>
</g>
<g>
</g>
<g>
</g>
<g>
</g>
<g>
</g>
<g>
</g>
<g>
</g>
<g>
</g>
<g>
</g>
<g>
</g>
<g>
</g>
<g>
</g>
<g>
</g>
<g>
</g>
<g>
</g>
</svg>
