<svg xmlns="http://www.w3.org/2000/svg" width="24" height="16" viewBox="0 0 24 16">
  <metadata><?xpacket begin="﻿" id="W5M0MpCehiHzreSzNTczkc9d"?>
<x:xmpmeta xmlns:x="adobe:ns:meta/" x:xmptk="Adobe XMP Core 5.6-c138 79.159824, 2016/09/14-01:09:01        ">
   <rdf:RDF xmlns:rdf="http://www.w3.org/1999/02/22-rdf-syntax-ns#">
      <rdf:Description rdf:about=""/>
   </rdf:RDF>
</x:xmpmeta>
                                                                                                    
                                                                                                    
                                                                                                    
                                                                                                    
                                                                                                    
                                                                                                    
                                                                                                    
                                                                                                    
                                                                                                    
                                                                                                    
                                                                                                    
                                                                                                    
                                                                                                    
                                                                                                    
                                                                                                    
                                                                                                    
                                                                                                    
                                                                                                    
                                                                                                    
                                                                                                    
                           
<?xpacket end="w"?></metadata>
<defs>
    <style>
      .cls-1 {
        fill: #2bdafa;
        fill-rule: evenodd;
      }
    </style>
  </defs>
  <path class="cls-1" d="M1211.13,543.748v-2.6a1.763,1.763,0,0,0-1.76-1.78l-1.22-.194L1206.06,536c-0.03-.025-0.05-0.084-0.08-0.109a1.82,1.82,0,0,0-1.45-.739h-3.96v-1.106a0.972,0.972,0,0,0-.92-1.017h-10.7a0.972,0.972,0,0,0-.92,1.017v12a1,1,0,0,0,1,1.012h1.44a2.7,2.7,0,0,0,2.61,1.969,2.73,2.73,0,0,0,2.61-1.969h8.87a2.7,2.7,0,0,0,2.61,1.969,2.73,2.73,0,0,0,2.61-1.969h1.25a1,1,0,0,0,1-1.012v-1.284A1.032,1.032,0,0,0,1211.13,543.748Zm-18.05,3.913a1.369,1.369,0,0,1-1.36-1.369,1.39,1.39,0,0,1,1.36-1.368A1.369,1.369,0,0,1,1193.08,547.661Zm9.35-8.381a0.129,0.129,0,0,1-.13-0.13v-2.514a0.132,0.132,0,0,1,.13-0.129h2.15a0.121,0.121,0,0,1,.11.055l1.67,2.514a0.125,0.125,0,0,1-.1.2h-3.83v0.006Zm4.74,8.381a1.369,1.369,0,0,1-1.36-1.369,1.39,1.39,0,0,1,1.36-1.368,1.37,1.37,0,0,1,1.36,1.368A1.389,1.389,0,0,1,1207.17,547.661Z" transform="translate(-1188.03 -533.031)"/>
</svg>
