<svg xmlns="http://www.w3.org/2000/svg" width="35" height="55" viewBox="0 0 35 55">
  <metadata><?xpacket begin="﻿" id="W5M0MpCehiHzreSzNTczkc9d"?>
<x:xmpmeta xmlns:x="adobe:ns:meta/" x:xmptk="Adobe XMP Core 5.6-c138 79.159824, 2016/09/14-01:09:01        ">
   <rdf:RDF xmlns:rdf="http://www.w3.org/1999/02/22-rdf-syntax-ns#">
      <rdf:Description rdf:about=""/>
   </rdf:RDF>
</x:xmpmeta>
                                                                                                    
                                                                                                    
                                                                                                    
                                                                                                    
                                                                                                    
                                                                                                    
                                                                                                    
                                                                                                    
                                                                                                    
                                                                                                    
                                                                                                    
                                                                                                    
                                                                                                    
                                                                                                    
                                                                                                    
                                                                                                    
                                                                                                    
                                                                                                    
                                                                                                    
                                                                                                    
                           
<?xpacket end="w"?></metadata>
<defs>
    <style>
      .cls-1 {
        fill: #fff;
        fill-rule: evenodd;
      }
    </style>
  </defs>
  <path class="cls-1" d="M771.714,3078.92v-1.05a2.521,2.521,0,0,1,2.516-2.52h0.9a31.779,31.779,0,0,0-2.155-10.62,30.468,30.468,0,0,1-2.12-10.94c0-4.64,1.464-8.4,4.353-11.17a18.1,18.1,0,0,1,7.756-4.18,5.423,5.423,0,0,1,2.822-3.91,4.61,4.61,0,0,1,2.22-.47,0.8,0.8,0,0,1,.735.8v2.66c1.037-.05,1.706-0.03,1.806-0.02a0.806,0.806,0,0,1-.073,1.61c-0.088-.01-8.92-0.35-14.158,4.68-2.56,2.45-3.857,5.82-3.857,10a28.77,28.77,0,0,0,2.032,10.42,33,33,0,0,1,2.243,11.14h18.456a6.161,6.161,0,0,0,.517-2.64c0-2.12-1.3-6.99-10.049-15.77a0.812,0.812,0,0,1-.13-0.97,0.8,0.8,0,0,1,.892-0.38,7.737,7.737,0,0,0,5.24-.97,2.552,2.552,0,0,1,2.847.28,9.488,9.488,0,0,0,8.173,1.66l0.671-3.37-8.266-8.3a0.791,0.791,0,0,1-.235-0.56v-1.07a0.909,0.909,0,0,0-.827-0.91,26.576,26.576,0,0,0-9.979.95,0.8,0.8,0,0,1-1-.53,0.811,0.811,0,0,1,.525-1.01,28.129,28.129,0,0,1,10.61-1.01,2.505,2.505,0,0,1,2.28,2.51v0.73l8.335,8.37a0.8,0.8,0,0,1,.219.72l-0.857,4.31a0.814,0.814,0,0,1-.592.62,11.187,11.187,0,0,1-10.054-1.85,0.963,0.963,0,0,0-1.053-.14,9.652,9.652,0,0,1-4.206,1.27c7.454,7.85,9.069,12.7,9.065,15.42a8.382,8.382,0,0,1-.4,2.67,2.526,2.526,0,0,1,2.118,2.49v1.05a2.529,2.529,0,0,1,1.714,2.39v5.16a2.523,2.523,0,0,1-2.516,2.53H772.516a2.523,2.523,0,0,1-2.516-2.53v-5.16A2.529,2.529,0,0,1,771.714,3078.92Zm15.426-41.27v-1.9a3.459,3.459,0,0,0-.651.23,3.53,3.53,0,0,0-1.724,2.04C785.616,3037.85,786.419,3037.73,787.14,3037.65Zm-14.624,49.74h25.709a0.915,0.915,0,0,0,.912-0.92v-5.16a0.913,0.913,0,0,0-.912-0.91H777.658a0.805,0.805,0,0,1,0-1.61h19.765v-0.92a0.913,0.913,0,0,0-.912-0.91H774.23a0.913,0.913,0,0,0-.912.91v0.92h0.912a0.805,0.805,0,0,1,0,1.61h-1.714a0.913,0.913,0,0,0-.912.91v5.16h0A0.915,0.915,0,0,0,772.516,3087.39Zm6.357-43.41c0.448-.3.921-0.59,1.408-0.85a0.8,0.8,0,0,1,.755,1.42c-0.441.24-.869,0.5-1.273,0.77a0.8,0.8,0,0,1-.444.13,0.784,0.784,0,0,1-.668-0.36A0.8,0.8,0,0,1,778.873,3043.98Zm13.353,0.4a0.8,0.8,0,0,1,.8.81v0.86a0.8,0.8,0,0,1-1.6,0v-0.86A0.8,0.8,0,0,1,792.226,3044.38Z" transform="translate(-770 -3034)"/>
</svg>
