<svg xmlns="http://www.w3.org/2000/svg" width="21" height="19.969" viewBox="0 0 21 19.969">
  <metadata><?xpacket begin="﻿" id="W5M0MpCehiHzreSzNTczkc9d"?>
<x:xmpmeta xmlns:x="adobe:ns:meta/" x:xmptk="Adobe XMP Core 5.6-c138 79.159824, 2016/09/14-01:09:01        ">
   <rdf:RDF xmlns:rdf="http://www.w3.org/1999/02/22-rdf-syntax-ns#">
      <rdf:Description rdf:about=""/>
   </rdf:RDF>
</x:xmpmeta>
                                                                                                    
                                                                                                    
                                                                                                    
                                                                                                    
                                                                                                    
                                                                                                    
                                                                                                    
                                                                                                    
                                                                                                    
                                                                                                    
                                                                                                    
                                                                                                    
                                                                                                    
                                                                                                    
                                                                                                    
                                                                                                    
                                                                                                    
                                                                                                    
                                                                                                    
                                                                                                    
                           
<?xpacket end="w"?></metadata>
<defs>
    <style>
      .cls-1 {
        fill: #2bdafa;
        fill-rule: evenodd;
      }
    </style>
  </defs>
  <path id="Forma_1" data-name="Forma 1" class="cls-1" d="M1041.87,615.468h1.75a4.232,4.232,0,0,1,2.19.609,0.865,0.865,0,0,0,1.2-.331,0.938,0.938,0,0,0-.32-1.242,5.967,5.967,0,0,0-3.07-.852h-1.75A0.909,0.909,0,0,0,1041.87,615.468Zm12.25,0h1.75v2.726a0.87,0.87,0,0,0,1.42.709l4.37-3.633a0.928,0.928,0,0,0,0-1.419l-4.37-3.634a0.87,0.87,0,0,0-1.42.709v2.726h-1.75a6.243,6.243,0,0,0-6.12,6.359,4.463,4.463,0,0,1-4.38,4.543h-1.75a0.909,0.909,0,0,0,0,1.817h1.75a6.251,6.251,0,0,0,6.13-6.36A4.455,4.455,0,0,1,1054.12,615.468Zm3.5-2.652,2.09,1.744-2.09,1.744v-3.488h0Zm4.04,11.937-4.37-3.634a0.871,0.871,0,0,0-1.42.709v2.726h-1.75a4.247,4.247,0,0,1-2.42-.757,0.854,0.854,0,0,0-1.21.255,0.928,0.928,0,0,0,.24,1.259,5.966,5.966,0,0,0,3.39,1.061h1.75V629.1a0.871,0.871,0,0,0,1.42.71l4.37-3.634A0.928,0.928,0,0,0,1061.66,624.753Zm-4.04,2.453v-3.487l2.09,1.743Z" transform="translate(-1041 -610.031)"/>
</svg>
