<svg xmlns="http://www.w3.org/2000/svg" width="55" height="55.03" viewBox="0 0 55 55.03">
  <metadata><?xpacket begin="﻿" id="W5M0MpCehiHzreSzNTczkc9d"?>
<x:xmpmeta xmlns:x="adobe:ns:meta/" x:xmptk="Adobe XMP Core 5.6-c138 79.159824, 2016/09/14-01:09:01        ">
   <rdf:RDF xmlns:rdf="http://www.w3.org/1999/02/22-rdf-syntax-ns#">
      <rdf:Description rdf:about=""/>
   </rdf:RDF>
</x:xmpmeta>
                                                                                                    
                                                                                                    
                                                                                                    
                                                                                                    
                                                                                                    
                                                                                                    
                                                                                                    
                                                                                                    
                                                                                                    
                                                                                                    
                                                                                                    
                                                                                                    
                                                                                                    
                                                                                                    
                                                                                                    
                                                                                                    
                                                                                                    
                                                                                                    
                                                                                                    
                                                                                                    
                           
<?xpacket end="w"?></metadata>
<defs>
    <style>
      .cls-1 {
        fill: #fff;
        fill-rule: evenodd;
      }
    </style>
  </defs>
  <path id="Forma_1" data-name="Forma 1" class="cls-1" d="M213.018,3035.47a1.074,1.074,0,1,0-.263,1.49A1.071,1.071,0,0,0,213.018,3035.47Zm-0.263,34.15a1.074,1.074,0,1,0,.263,1.5A1.073,1.073,0,0,0,212.755,3069.62Zm-49.278-34.42a1.074,1.074,0,1,0,.264,1.5A1.071,1.071,0,0,0,163.477,3035.2Zm0.264,34.69a1.073,1.073,0,1,0-.264,1.49A1.072,1.072,0,0,0,163.741,3069.89Zm35.937-30.27a18.283,18.283,0,0,0-30.212,10.7,18.236,18.236,0,0,0,7.092,17.53,3.2,3.2,0,0,1,1.274,2.55v9.83a3.337,3.337,0,0,0,2.314,3.17,7.517,7.517,0,0,0,14.933-.09,3.336,3.336,0,0,0,2.089-3.08v-9.83a3.177,3.177,0,0,1,1.265-2.54,18.515,18.515,0,0,0,5.33-6.31,18.077,18.077,0,0,0,2-8.31A18.323,18.323,0,0,0,199.678,3039.62Zm-12.071,48.23a5.365,5.365,0,0,1-5.263-4.3H192.87A5.381,5.381,0,0,1,187.607,3087.85Zm7.413-7.62a1.186,1.186,0,0,1-1.061,1.17H181.146a1.166,1.166,0,0,1-1.166-1.17v-1.3h15.039v1.3h0Zm0-3.45H179.98v-2.47h15.039v2.47h0Zm-7.52-18.54a7.277,7.277,0,0,0,3.223-.76v14.68h-6.446v-14.68A7.277,7.277,0,0,0,187.5,3058.24Zm-2.963-3.12,2.963-5.93,2.963,5.93A4.99,4.99,0,0,1,184.537,3055.12Zm12.608,11.02a5.336,5.336,0,0,0-2.126,4.26v1.76h-2.148v-16.77c0-.04,0-0.08-0.007-0.12,0-.01,0-0.02,0-0.03a0.467,0.467,0,0,0-.014-0.08c0-.01-0.006-0.03-0.009-0.04a0.8,0.8,0,0,0-.023-0.08l-0.012-.03c-0.01-.03-0.023-0.06-0.036-0.09a0.061,0.061,0,0,1-.007-0.01l-0.008-.02h0l-4.286-8.58a1.07,1.07,0,0,0-1.922,0l-4.286,8.58h0l-0.008.02a0.061,0.061,0,0,1-.007.01q-0.019.045-.036,0.09l-0.012.03a0.8,0.8,0,0,0-.023.08c0,0.01-.006.03-0.009,0.04a0.467,0.467,0,0,0-.014.08c0,0.01,0,.02,0,0.03,0,0.04-.007.08-0.007,0.12v16.77h-2.148v-1.76a5.362,5.362,0,0,0-2.134-4.27,16.111,16.111,0,0,1,7.81-28.91,15.966,15.966,0,0,1,12.588,4,16.166,16.166,0,0,1,5.369,12.02A15.99,15.99,0,0,1,197.145,3066.14Zm-0.334-23.32a1.078,1.078,0,0,0-1.433,1.61,11.834,11.834,0,0,1,3.938,8.81,1.075,1.075,0,0,0,2.149,0A14.01,14.01,0,0,0,196.811,3042.82Zm-30.8,9.34h-4.942a1.075,1.075,0,0,0,0,2.15h4.942A1.075,1.075,0,0,0,166.016,3052.16Zm47.91,0h-4.942a1.075,1.075,0,0,0,0,2.15h4.942A1.075,1.075,0,0,0,213.926,3052.16Zm-43.145,12.79a1.079,1.079,0,0,0-1.5-.26l-3.52,2.47a1.074,1.074,0,0,0,1.232,1.76l3.52-2.47A1.078,1.078,0,0,0,170.781,3064.95Zm38.718-27.12a1.072,1.072,0,0,0-1.5-.27l-3.52,2.47a1.074,1.074,0,0,0,1.232,1.76l3.52-2.47A1.068,1.068,0,0,0,209.5,3037.83Zm-38.982,2.2-3.52-2.47a1.074,1.074,0,0,0-1.232,1.76l3.52,2.47A1.074,1.074,0,0,0,170.517,3040.03Zm38.718,27.13-3.52-2.47a1.074,1.074,0,1,0-1.232,1.76l3.52,2.47A1.074,1.074,0,0,0,209.235,3067.16Z" transform="translate(-160 -3034.97)"/>
</svg>
