<?xml version="1.0" encoding="utf-8"?>
<!-- Generator: Adobe Illustrator 21.1.0, SVG Export Plug-In . SVG Version: 6.00 Build 0)  -->
<svg version="1.1" id="Слой_1" xmlns="http://www.w3.org/2000/svg" xmlns:xlink="http://www.w3.org/1999/xlink" x="0px" y="0px"
	 viewBox="0 0 206.7 51.6" style="enable-background:new 0 0 206.7 51.6;" xml:space="preserve">
<style type="text/css">
	.st0{fill:#2B2A29;}
</style>
<path class="st0" d="M52,45.5c-0.6,0.1-1.3,0.1-1.9,0.1c-0.8,0-1.5-0.1-2.3-0.2c-0.7-0.1-1.4-0.3-2.1-0.6c-0.6-0.2-1.1-0.4-1.7-0.5
	c-0.6-0.1-1.3-0.2-1.9-0.2c-0.6,0-1.3,0.1-1.9,0.2c-0.6,0.1-1.2,0.3-1.7,0.5c-0.3,0.1-0.5,0.2-0.8,0.3c-1.4,1-2.9,1.7-4.5,2.2
	c-0.4,0-0.8-0.1-1.3-0.2c-0.7-0.1-1.4-0.3-2.1-0.6c-0.6-0.2-1.1-0.4-1.7-0.5c-0.6-0.1-1.3-0.2-1.9-0.2c-0.6,0-1.3,0.1-1.9,0.2
	c-0.6,0.1-1.2,0.3-1.7,0.5c-0.7,0.3-1.4,0.5-2.1,0.6c-0.7,0.1-1.5,0.2-2.3,0.2s-1.5-0.1-2.3-0.2c-0.7-0.1-1.4-0.3-2.1-0.6
	c-0.6-0.2-1.1-0.4-1.7-0.5c-0.6-0.1-1.2-0.2-1.8-0.2v-1.6h-0.1c-0.6,0-1.3,0.1-1.9,0.2c-0.6,0.1-1.2,0.3-1.7,0.5
	c-0.7,0.3-1.4,0.5-2.1,0.6c-0.7,0.1-1.5,0.2-2.3,0.2c-0.6,0-1.3-0.1-1.9-0.1v-2.1h0.1c0.6,0.1,1.2,0.2,1.8,0.2s1.3-0.1,1.9-0.2
	c0.6-0.1,1.2-0.3,1.7-0.5c0.7-0.3,1.4-0.5,2.1-0.6c0.7-0.1,1.5-0.2,2.3-0.2s1.5,0.1,2.3,0.2c0.7,0.1,1.4,0.3,2.1,0.6
	c0.6,0.2,1.1,0.4,1.7,0.5c0.6,0.1,1.3,0.2,1.9,0.2c0.6,0,1.3-0.1,1.9-0.2c0.6-0.1,1.2-0.3,1.7-0.5c0.7-0.3,1.4-0.5,2.1-0.6
	c0.7-0.1,1.5-0.2,2.3-0.2s1.5,0.1,2.3,0.2c0.7,0.1,1.4,0.3,2.1,0.6c0.6,0.2,1.1,0.4,1.7,0.5c0.6,0.1,1.3,0.2,1.9,0.2
	c0.6,0,1.3-0.1,1.9-0.2c0.6-0.1,1.2-0.3,1.7-0.5c0.7-0.3,1.4-0.5,2.1-0.6c0.7-0.1,1.5-0.2,2.3-0.2s1.5,0.1,2.3,0.2
	c0.7,0.1,1.4,0.3,2.1,0.6c0.6,0.2,1.1,0.4,1.7,0.5c0.6,0.1,1.3,0.2,1.9,0.2c0.6,0,1.2,0,1.8-0.2h0.1L52,45.5L52,45.5z M206.4,29.5
	c0-4.3-2.1-7.6-8-7.6c-3.6,0-6,1-7.2,1.5l1.1,4c1.1-0.7,3.1-1.3,4.9-1.3c2.3,0,2.8,0.8,2.8,1.5v0.1c-5.9,0-10,2.1-10,6.7
	c0,2.9,2.2,5.4,5.7,5.4c1.9,0,3.6-0.5,4.8-1.9h0.1l0.4,1.5h5.7c-0.2-0.9-0.3-2.5-0.3-4.2V29.5L206.4,29.5z M200.3,33
	c0,0.3,0,0.6-0.1,0.9c-0.3,0.9-1.3,1.6-2.2,1.6c-1.1,0-1.8-0.6-1.8-1.7c0-1.5,1.5-2.2,4-2.2L200.3,33L200.3,33z M169.7,46.5h6.3
	v-8.2h0.1c0.6,0.9,2.1,1.7,4.1,1.7c3.8,0,7.9-2.9,7.9-9.2c0-5.6-3.5-8.8-7.1-8.8c-2.4,0-4.3,0.9-5.6,2.6h-0.1l-0.3-2.2h-5.4
	c0.1,1.6,0.1,3.6,0.1,5.9V46.5L169.7,46.5z M176,29.8c0-0.3,0-0.6,0.1-0.8c0.2-1.2,1.3-2.2,2.6-2.2c2,0,3,1.8,3,4.2
	c0,2.5-1.2,4.1-3.1,4.1c-1.3,0-2.2-0.9-2.5-2.1c-0.1-0.3-0.1-0.7-0.1-1.1V29.8L176,29.8z M149.4,38.5c1.3,0.7,4.1,1.5,7,1.5
	c6.9,0,10.1-3.5,10.1-7.6c0-3.3-1.9-5.6-6.2-7.1c-3-1.1-4.3-1.6-4.3-2.8c0-1.1,1.1-1.8,3-1.8c2.4,0,4.1,0.7,5.2,1.1l1.3-5.1
	c-1.6-0.7-3.6-1.2-6.4-1.2c-6,0-9.5,3.2-9.5,7.4c0,3.5,2.6,5.7,6.6,7.1c2.7,0.9,3.7,1.6,3.7,2.7c0,1.2-1.1,1.9-3.2,1.9
	c-2.4,0-4.7-0.7-6.1-1.5L149.4,38.5L149.4,38.5z M128.4,39.5V26.8h4.3v12.7h6.4V22.2h-10.7v-0.5c0-1.5,1-2.6,3.6-2.6
	c1.8,0,3.2,0.4,4,0.8l1.1-4.8c-1.2-0.6-3.5-1-5.4-1c-5.6,0-9.7,2.6-9.7,7.4v0.6h-2.2v4.6h2.2v12.7L128.4,39.5L128.4,39.5z
	 M111.1,39.5h6.3v-25h-6.3V39.5L111.1,39.5z M107.9,33.1c0.1-0.4,0.2-1.3,0.2-2.4c0-4.7-2.4-8.9-8-8.9c-6.4,0-9,5.2-9,9.2
	c0,5.5,3.4,8.9,9.5,8.9c2.1,0,4.4-0.3,6.5-1.1l-0.8-4.2c-1.5,0.5-3.1,0.7-4.7,0.7c-2.2,0-4.2-0.8-4.4-2.1h10.7V33.1z M97.2,28.8
	c0.1-1.1,0.8-2.8,2.7-2.8c2,0,2.5,1.8,2.5,2.8H97.2L97.2,28.8z M67.5,39.4c1.2,0.2,3.3,0.4,6.3,0.4c4.6,0,8.5-0.9,11.1-3
	c2.3-1.8,4.1-4.9,4.1-9.7c0-4.4-1.7-7.3-4.3-9.1c-2.4-1.6-5.2-2.4-9.7-2.4c-2.8,0-5.5,0.2-7.6,0.5v23.3H67.5z M73.9,20.7
	c0.3-0.1,0.9-0.1,1.9-0.1c3.8,0,6.5,2.2,6.5,6.8c0,5.3-3,7.6-7.1,7.6c-0.4,0-1,0-1.3-0.1L73.9,20.7L73.9,20.7z M10.2,8.1
	c0,0.1,0,0.1,0,0.2v1.6c0.6,0,1.2,0.1,1.8,0.2c0.6,0.1,1.2,0.3,1.7,0.5c0.7,0.3,1.4,0.5,2.1,0.6c0.7,0.1,1.5,0.2,2.3,0.2
	s1.5-0.1,2.3-0.2c0.7-0.1,1.4-0.3,2.1-0.6c0.6-0.2,1.1-0.4,1.7-0.5c0.6-0.1,1.3-0.2,1.9-0.2c0.6,0,1.3,0.1,1.9,0.2
	c0.6,0.1,1.2,0.3,1.7,0.5c0.7,0.3,1.4,0.5,2.1,0.6c0.7,0.1,1.5,0.2,2.3,0.2s1.5-0.1,2.3-0.2c0.7-0.1,1.4-0.3,2.1-0.6h0.1
	c-0.6-0.4-1.1-0.9-1.8-1.2c0.6-0.1,1.1-0.3,1.7-0.5c0.6-0.2,1.1-0.4,1.7-0.5c0.6-0.1,1.3-0.2,1.9-0.2s1.3,0.1,1.9,0.2
	c0.6,0.1,1.2,0.3,1.7,0.5c0.7,0.3,1.4,0.5,2.1,0.6c0.7,0.1,1.5,0.2,2.3,0.2c0.6,0,1.3,0,1.9-0.1V7.5h-0.1c-0.6,0.1-1.2,0.2-1.8,0.2
	s-1.3-0.1-1.9-0.2C47.6,7.4,47,7.2,46.5,7c-0.7-0.3-1.4-0.5-2.1-0.6c-0.7-0.1-1.5-0.2-2.3-0.2s-1.5,0.1-2.3,0.2
	c-0.7,0.1-1.4,0.3-2.1,0.6c-0.6,0.2-1.1,0.4-1.7,0.5c-0.6,0.1-1.3,0.2-1.9,0.2c-0.6,0-1.3-0.1-1.9-0.2C31.6,7.4,31,7.2,30.5,7
	c-0.7-0.3-1.4-0.5-2.1-0.6c-0.7-0.1-1.5-0.2-2.3-0.2s-1.5,0.1-2.3,0.2c-0.7,0.1-1.4,0.3-2.1,0.6c-0.6,0.2-1.1,0.4-1.7,0.5
	c-0.6,0.1-1.3,0.2-1.9,0.2c-0.6,0-1.3-0.1-1.9-0.2C15.6,7.4,15,7.2,14.5,7c-0.7-0.3-1.4-0.5-2.1-0.6c-0.7-0.1-1.5-0.2-2.3-0.2
	S8.6,6.3,7.8,6.4C7.1,6.5,6.4,6.7,5.7,7C5.1,7.2,4.6,7.4,4,7.5C3.4,7.6,2.7,7.7,2.1,7.7c-0.6,0-1.2,0-1.8-0.2H0.2v2.1
	c0.6,0.1,1.3,0.1,1.9,0.1c0.8,0,1.5-0.1,2.3-0.2c0.7-0.1,1.4-0.3,2.1-0.6c0.6-0.2,1.1-0.4,1.7-0.5C8.8,8.3,9.5,8.2,10.2,8.1
	L10.2,8.1L10.2,8.1z M10.2,14.1v1.8c0.6,0,1.2,0.1,1.8,0.2c0.6,0.1,1.2,0.3,1.7,0.5c0.7,0.3,1.4,0.5,2.1,0.6
	c0.7,0.1,1.5,0.2,2.3,0.2c0.7,0,1.4-0.1,2.1-0.2v-1.8h0.1c0.1,0,0.2,0,0.3-0.1h5.7c2.2,0,4,0.6,5.2,1.8c0.1,0,0.2,0,0.3,0.1
	c0.7,0.1,1.5,0.2,2.3,0.2s1.5-0.1,2.3-0.2c0.7-0.1,1.4-0.3,2.1-0.6c0.6-0.2,1.1-0.4,1.7-0.5c0.6-0.1,1.3-0.2,1.9-0.2
	c0.2,0,0.3,0,0.5,0c-0.2-0.6-0.5-1.2-0.9-1.8c0.1,0,0.2,0,0.3,0c0.6,0,1.3,0.1,1.9,0.2c0.6,0.1,1.2,0.3,1.7,0.5
	c0.7,0.3,1.4,0.5,2.1,0.6c0.7,0.1,1.5,0.2,2.3,0.2c0.6,0,1.3-0.1,1.9-0.1v-2.1h-0.1c-0.6,0.1-1.2,0.2-1.8,0.2s-1.3-0.1-1.9-0.2
	c-0.6-0.1-1.2-0.3-1.7-0.5c-0.7-0.3-1.4-0.5-2.1-0.6c-0.7-0.1-1.5-0.2-2.3-0.2s-1.5,0.1-2.3,0.2c-0.7,0.1-1.4,0.3-2.1,0.6
	c-0.6,0.2-1.1,0.4-1.7,0.5c-0.6,0.1-1.3,0.2-1.9,0.2c-0.6,0-1.3-0.1-1.9-0.2c-0.6-0.1-1.2-0.3-1.7-0.5c-0.7-0.3-1.4-0.5-2.1-0.6
	c-0.7-0.1-1.5-0.2-2.3-0.2s-1.5,0.1-2.3,0.2c-0.7,0.1-1.4,0.3-2.1,0.6c-0.6,0.2-1.1,0.4-1.7,0.5c-0.6,0.1-1.3,0.2-1.9,0.2
	c-0.6,0-1.3-0.1-1.9-0.2c-0.6-0.1-1.2-0.3-1.7-0.5c-0.7-0.3-1.4-0.5-2.1-0.6c-0.7-0.1-1.5-0.2-2.3-0.2s-1.5,0.1-2.3,0.2
	c-0.7,0.1-1.4,0.3-2.1,0.6c-0.6,0.2-1.1,0.4-1.7,0.5c-0.6,0.1-1.3,0.2-1.9,0.2c-0.6,0-1.2,0-1.8-0.2H0.1v2.1
	c0.6,0.1,1.3,0.1,1.9,0.1c0.8,0,1.5-0.1,2.3-0.2c0.7-0.1,1.4-0.3,2.1-0.6c0.6-0.2,1.1-0.4,1.7-0.5C8.8,14.2,9.4,14.1,10.2,14.1
	L10.2,14.1L10.2,14.1z M10.2,20.1v1.8c0.6,0,1.2,0.1,1.8,0.2c0.6,0.1,1.2,0.3,1.7,0.5c0.7,0.3,1.4,0.5,2.1,0.6
	c0.7,0.1,1.5,0.2,2.3,0.2c0.7,0,1.4-0.1,2.1-0.2v-1.8h0.1c0.7-0.1,1.4-0.3,2.1-0.6c0.6-0.2,1.1-0.4,1.7-0.5c0.6-0.1,1.3-0.2,1.9-0.2
	c0.6,0,1.3,0.1,1.9,0.2c0.6,0.1,1.2,0.3,1.7,0.5c0.7,0.3,1.4,0.5,2.1,0.6c0.5,0.1,1.1,0.2,1.6,0.2v0.1v1.6c0.2,0,0.4,0,0.6,0
	c0.8,0,1.5-0.1,2.3-0.2c0.7-0.1,1.4-0.3,2.1-0.6c0.6-0.2,1.1-0.4,1.7-0.5c0.6-0.1,1.3-0.2,1.9-0.2c0.5,0,0.9,0,1.4,0.1v-1.2
	c0-0.2,0-0.4,0-0.6c0.2,0,0.3,0,0.5,0.1c0.6,0.1,1.2,0.3,1.7,0.5c0.7,0.3,1.4,0.5,2.1,0.6c0.7,0.1,1.5,0.2,2.3,0.2
	c0.6,0,1.3,0,1.9-0.1v-2.1h-0.1c-0.6,0.1-1.2,0.2-1.8,0.2s-1.3-0.1-1.9-0.2c-0.6-0.1-1.2-0.3-1.7-0.5c-0.7-0.3-1.4-0.5-2.1-0.6
	c-0.7-0.1-1.5-0.2-2.3-0.2s-1.5,0.1-2.3,0.2c-0.7,0.1-1.4,0.3-2.1,0.6c-0.6,0.2-1.1,0.4-1.7,0.5c-0.6,0.1-1.3,0.2-1.9,0.2
	c-0.6,0-1.3-0.1-1.9-0.2c-0.6-0.1-1.2-0.3-1.7-0.5c-0.7-0.3-1.4-0.5-2.1-0.6c-0.7-0.1-1.5-0.2-2.3-0.2s-1.5,0.1-2.3,0.2
	c-0.7,0.1-1.4,0.3-2.1,0.6c-0.6,0.2-1.1,0.4-1.7,0.5c-0.6,0.1-1.3,0.2-1.9,0.2c-0.6,0-1.3-0.1-1.9-0.2c-0.6-0.1-1.2-0.3-1.7-0.5
	c-0.7-0.3-1.4-0.5-2.1-0.6c-0.7-0.1-1.5-0.2-2.3-0.2s-1.5,0.1-2.3,0.2c-0.7,0.1-1.4,0.3-2.1,0.6c-0.6,0.2-1.1,0.4-1.7,0.5
	c-0.6,0.1-1.3,0.2-1.9,0.2c-0.6,0-1.2,0-1.8-0.2H0v2.1c0.6,0.1,1.3,0.1,1.9,0.1c0.8,0,1.5-0.1,2.3-0.2c0.7-0.1,1.4-0.3,2.1-0.6
	c0.6-0.2,1.1-0.4,1.7-0.5C8.8,20.2,9.4,20.1,10.2,20.1L10.2,20.1L10.2,20.1z M10.2,26.1v1.8c0.6,0,1.2,0.1,1.8,0.2
	c0.6,0.1,1.2,0.3,1.7,0.5c0.7,0.3,1.4,0.5,2.1,0.6c0.7,0.1,1.5,0.2,2.3,0.2c0.7,0,1.4-0.1,2.1-0.2v-1.8h0.1c0.7-0.1,1.4-0.3,2.1-0.6
	c0.6-0.2,1.1-0.4,1.7-0.5c0.6-0.1,1.3-0.2,1.9-0.2c0.6,0,1.3,0.1,1.9,0.2c0.6,0.1,1.2,0.3,1.7,0.5c0.7,0.3,1.4,0.5,2.1,0.6
	c0.5,0.1,1.1,0.2,1.6,0.2v1.8c0.2,0,0.4,0,0.6,0c0.8,0,1.5-0.1,2.3-0.2c0.7-0.1,1.4-0.3,2.1-0.6c0.6-0.2,1.1-0.4,1.7-0.5
	c0.6-0.1,1.3-0.2,1.9-0.2c0.5,0,0.9,0,1.4,0.1v-1.8c0.2,0,0.3,0,0.5,0.1c0.6,0.1,1.2,0.3,1.7,0.5c0.7,0.3,1.4,0.5,2.1,0.6
	c0.7,0.1,1.5,0.2,2.3,0.2c0.6,0,1.3,0,1.9-0.1v-2.1h-0.1c-0.6,0.1-1.2,0.2-1.8,0.2s-1.3-0.1-1.9-0.2c-0.6-0.1-1.2-0.3-1.7-0.5
	c-0.7-0.3-1.4-0.5-2.1-0.6c-0.7-0.1-1.5-0.2-2.3-0.2s-1.5,0.1-2.3,0.2c-0.7,0.1-1.4,0.3-2.1,0.6c-0.6,0.2-1.1,0.4-1.7,0.5
	c-0.6,0.1-1.3,0.2-1.9,0.2c-0.6,0-1.3-0.1-1.9-0.2c-0.6-0.1-1.2-0.3-1.7-0.5c-0.7-0.3-1.4-0.5-2.1-0.6c-0.7-0.1-1.5-0.2-2.3-0.2
	s-1.5,0.1-2.3,0.2c-0.7,0.1-1.4,0.3-2.1,0.6c-0.6,0.2-1.1,0.4-1.7,0.5c-0.6,0.1-1.3,0.2-1.9,0.2c-0.6,0-1.3-0.1-1.9-0.2
	c-0.6-0.1-1.2-0.3-1.7-0.5c-0.7-0.3-1.4-0.5-2.1-0.6c-0.7-0.1-1.5-0.2-2.3-0.2s-1.5,0.1-2.3,0.2c-0.7,0.1-1.4,0.3-2.1,0.6
	c-0.6,0.2-1.1,0.4-1.7,0.5c-0.6,0.1-1.3,0.2-1.9,0.2c-0.6,0-1.2,0-1.8-0.2H0v2.1c0.6,0.1,1.3,0.1,1.9,0.1c0.8,0,1.5-0.1,2.3-0.2
	c0.7-0.1,1.4-0.3,2.1-0.6c0.6-0.2,1.1-0.4,1.7-0.5C8.8,26.2,9.4,26.1,10.2,26.1L10.2,26.1L10.2,26.1z M10.2,32.2V34
	c0.6,0,1.2,0.1,1.8,0.2c0.6,0.1,1.2,0.3,1.7,0.5c0.7,0.3,1.4,0.5,2.1,0.6c0.7,0.1,1.5,0.2,2.3,0.2c0.7,0,1.4-0.1,2.1-0.2v-1.8h0.1
	c0.7-0.1,1.4-0.3,2.1-0.6c0.6-0.2,1.1-0.4,1.7-0.5c0.6-0.1,1.3-0.2,1.9-0.2c0.6,0,1.3,0.1,1.9,0.2c0.6,0.1,1.2,0.3,1.7,0.5
	c0.7,0.3,1.4,0.5,2.1,0.6c0.5,0.1,1.1,0.2,1.6,0.2c0,0.6-0.1,1.2-0.3,1.7c0.3,0,0.6,0,0.9,0c0.8,0,1.5-0.1,2.3-0.2
	c0.7-0.1,1.4-0.3,2.1-0.6c0.6-0.2,1.1-0.4,1.7-0.5c0.6-0.1,1.3-0.2,1.9-0.2c0.5,0,0.9,0,1.4,0.1v-1.8c0.2,0,0.3,0,0.5,0.1
	c0.6,0.1,1.2,0.3,1.7,0.5c0.7,0.3,1.4,0.5,2.1,0.6c0.7,0.1,1.5,0.2,2.3,0.2c0.6,0,1.3,0,1.9-0.1v-2.1h-0.1c-0.6,0.1-1.2,0.2-1.8,0.2
	s-1.3-0.1-1.9-0.2c-0.6-0.1-1.2-0.3-1.7-0.5c-0.7-0.3-1.4-0.5-2.1-0.6c-0.7-0.1-1.5-0.2-2.3-0.2s-1.5,0.1-2.3,0.2
	c-0.7,0.1-1.4,0.3-2.1,0.6c-0.6,0.2-1.1,0.4-1.7,0.5c-0.6,0.1-1.3,0.2-1.9,0.2c-0.6,0-1.3-0.1-1.9-0.2c-0.6-0.1-1.2-0.3-1.7-0.5
	c-0.7-0.3-1.4-0.5-2.1-0.6c-0.7-0.1-1.5-0.2-2.3-0.2s-1.5,0.1-2.3,0.2c-0.7,0.1-1.4,0.3-2.1,0.6c-0.6,0.2-1.1,0.4-1.7,0.5
	c-0.6,0.1-1.3,0.2-1.9,0.2c-0.6,0-1.3-0.1-1.9-0.2c-0.6-0.1-1.2-0.3-1.7-0.5c-0.7-0.3-1.4-0.5-2.1-0.6c-0.7-0.1-1.5-0.2-2.3-0.2
	s-1.5,0.1-2.3,0.2c-0.7,0.1-1.4,0.3-2.1,0.6c-0.6,0.2-1.1,0.4-1.7,0.5c-0.6,0.1-1.3,0.2-1.9,0.2c-0.6,0-1.2,0-1.8-0.2H0v2.1
	c0.6,0.1,1.3,0.1,1.9,0.1c0.8,0,1.5-0.1,2.3-0.2c0.7-0.1,1.4-0.3,2.1-0.6c0.6-0.2,1.1-0.4,1.7-0.5C8.8,32.2,9.4,32.2,10.2,32.2
	L10.2,32.2L10.2,32.2z M10.2,38.2V40c0.6,0,1.2,0.1,1.8,0.2c0.6,0.1,1.2,0.3,1.7,0.5c0.7,0.3,1.4,0.5,2.1,0.6
	c0.7,0.1,1.5,0.2,2.3,0.2s1.5-0.1,2.3-0.2c0.7-0.1,1.4-0.3,2.1-0.6c0.6-0.2,1.1-0.4,1.7-0.5c0.6-0.1,1.3-0.2,1.9-0.2
	c0.6,0,1.3,0.1,1.9,0.2c0.6,0.1,1.2,0.3,1.7,0.5c0.7,0.3,1.4,0.5,2.1,0.6c0.7,0.1,1.5,0.2,2.3,0.2s1.5-0.1,2.3-0.2
	c0.7-0.1,1.4-0.3,2.1-0.6c0.6-0.2,1.1-0.4,1.7-0.5c0.6-0.1,1.3-0.2,1.9-0.2h0.1c0.3-0.5,0.5-1.1,0.7-1.7c0.4,0,0.7,0.1,1.1,0.1
	c0.6,0.1,1.2,0.3,1.7,0.5c0.7,0.3,1.4,0.5,2.1,0.6c0.7,0.1,1.5,0.2,2.3,0.2c0.6,0,1.3,0,1.9-0.1v-2.1h-0.1c-0.6,0.1-1.2,0.2-1.8,0.2
	s-1.3-0.1-1.9-0.2c-0.6-0.1-1.2-0.3-1.7-0.5c-0.7-0.3-1.4-0.5-2.1-0.6c-0.7-0.1-1.5-0.2-2.3-0.2s-1.5,0.1-2.3,0.2
	c-0.7,0.1-1.4,0.3-2.1,0.6c-0.6,0.2-1.1,0.4-1.7,0.5c-0.6,0.1-1.3,0.2-1.9,0.2c-0.6,0-1.3-0.1-1.9-0.2c-0.6-0.1-1.2-0.3-1.7-0.5
	c-0.7-0.3-1.4-0.5-2.1-0.6c-0.7-0.1-1.5-0.2-2.3-0.2s-1.5,0.1-2.3,0.2c-0.7,0.1-1.4,0.3-2.1,0.6c-0.6,0.2-1.1,0.4-1.7,0.5
	c-0.6,0.1-1.3,0.2-1.9,0.2c-0.6,0-1.3-0.1-1.9-0.2c-0.6-0.1-1.2-0.3-1.7-0.5c-0.7-0.3-1.4-0.5-2.1-0.6c-0.7-0.1-1.5-0.2-2.3-0.2
	s-1.5,0.1-2.3,0.2c-0.7,0.1-1.4,0.3-2.1,0.6c-0.6,0.2-1.1,0.4-1.7,0.5c-0.6,0.1-1.3,0.2-1.9,0.2c-0.6,0-1.2,0-1.8-0.2H0.2v2.1
	c0.6,0.1,1.3,0.1,1.9,0.1c0.8,0,1.5-0.1,2.3-0.2c0.7-0.1,1.4-0.3,2.1-0.6c0.6-0.2,1.1-0.4,1.7-0.5C8.8,38.2,9.4,38.2,10.2,38.2
	L10.2,38.2L10.2,38.2z M52,3.4c-0.6,0.1-1.3,0.1-1.9,0.1c-0.8,0-1.5-0.1-2.3-0.2c-0.7-0.1-1.4-0.3-2.1-0.6c-0.6-0.2-1.1-0.4-1.7-0.5
	C43.4,2.1,42.7,2,42.1,2s-1.3,0.1-1.9,0.2c-0.6,0.1-1.2,0.3-1.7,0.5c-0.7,0.3-1.4,0.5-2.1,0.6c-0.7,0.1-1.5,0.2-2.3,0.2
	s-1.5-0.1-2.3-0.2c-0.7-0.1-1.4-0.3-2.1-0.6c-0.6-0.2-1.1-0.4-1.7-0.5C27.4,2.1,26.7,2,26.1,2c-0.6,0-1.3,0.1-1.9,0.2
	c-0.6,0.1-1.2,0.3-1.7,0.5c-0.7,0.3-1.4,0.5-2.1,0.6c-0.7,0.1-1.5,0.2-2.3,0.2s-1.5-0.1-2.3-0.2c-0.7-0.1-1.4-0.3-2.1-0.6
	c-0.6-0.2-1.1-0.4-1.7-0.5C11.4,2.1,10.7,2,10.1,2C9.5,2,8.8,2.1,8.2,2.2C7.6,2.3,7,2.5,6.5,2.7C5.8,3,5.1,3.2,4.4,3.3
	C3.7,3.4,2.9,3.5,2.1,3.5c-0.6,0-1.3,0-1.9-0.1V1.3h0.1c0.6,0.1,1.2,0.2,1.8,0.2S3.4,1.4,4,1.3C4.6,1.2,5.2,1,5.7,0.8
	c0.7-0.3,1.4-0.5,2.1-0.6C8.5,0.1,9.3,0,10.1,0s1.5,0.1,2.3,0.2c0.7,0.1,1.4,0.3,2.1,0.6c0.6,0.2,1.1,0.4,1.7,0.5
	c0.6,0.1,1.3,0.2,1.9,0.2c0.6,0,1.3-0.1,1.9-0.2c0.6-0.1,1.2-0.3,1.7-0.5c0.7-0.3,1.4-0.5,2.1-0.6C24.5,0.1,25.3,0,26.1,0
	s1.5,0.1,2.3,0.2c0.7,0.1,1.4,0.3,2.1,0.6c0.6,0.2,1.1,0.4,1.7,0.5c0.6,0.1,1.3,0.2,1.9,0.2c0.6,0,1.3-0.1,1.9-0.2
	c0.6-0.1,1.2-0.3,1.7-0.5c0.7-0.3,1.4-0.5,2.1-0.6C40.5,0.1,41.3,0,42.1,0s1.5,0.1,2.3,0.2c0.7,0.1,1.4,0.3,2.1,0.6
	c0.6,0.2,1.1,0.4,1.7,0.5c0.6,0.1,1.3,0.2,1.9,0.2c0.6,0,1.2,0,1.8-0.2H52L52,3.4L52,3.4z M0.2,49.4c0.6,0.1,1.2,0.2,1.8,0.2
	s1.3-0.1,1.9-0.2c0.6-0.1,1.2-0.3,1.7-0.5c0.7-0.3,1.4-0.5,2.1-0.6c0.7-0.1,1.5-0.2,2.3-0.2s1.5,0.1,2.3,0.2
	c0.7,0.1,1.4,0.3,2.1,0.6c0.6,0.2,1.1,0.4,1.7,0.5c0.6,0.1,1.3,0.2,1.9,0.2c0.6,0,1.3-0.1,1.9-0.2c0.6-0.1,1.2-0.3,1.7-0.5
	c0.7-0.3,1.4-0.5,2.1-0.6c0.7-0.1,1.5-0.2,2.3-0.2s1.5,0.1,2.3,0.2c0.7,0.1,1.4,0.3,2.1,0.6c0.6,0.2,1.1,0.4,1.7,0.5
	c0.6,0.1,1.3,0.2,1.9,0.2c0.6,0,1.3-0.1,1.9-0.2c0.6-0.1,1.2-0.3,1.7-0.5c0.7-0.3,1.4-0.5,2.1-0.6c0.7-0.1,1.5-0.2,2.3-0.2
	s1.5,0.1,2.3,0.2c0.7,0.1,1.4,0.3,2.1,0.6c0.6,0.2,1.1,0.4,1.7,0.5c0.6,0.1,1.3,0.2,1.9,0.2c0.6,0,1.2,0,1.8-0.2h0.1v2.1
	c-0.6,0.1-1.3,0.1-1.9,0.1c-0.8,0-1.5-0.1-2.3-0.2c-0.7-0.1-1.4-0.3-2.1-0.6c-0.6-0.2-1.1-0.4-1.7-0.5c-0.6-0.1-1.3-0.2-1.9-0.2
	c-0.6,0-1.3,0.1-1.9,0.2c-0.6,0.1-1.2,0.3-1.7,0.5c-0.7,0.3-1.4,0.5-2.1,0.6c-0.7,0.1-1.5,0.2-2.3,0.2s-1.5-0.1-2.3-0.2
	c-0.7-0.1-1.4-0.3-2.1-0.6c-0.6-0.2-1.1-0.4-1.7-0.5c-0.6-0.1-1.3-0.2-1.9-0.2c-0.6,0-1.3,0.1-1.9,0.2c-0.6,0.1-1.2,0.3-1.7,0.5
	c-0.7,0.3-1.4,0.5-2.1,0.6c-0.7,0.1-1.5,0.2-2.3,0.2s-1.5-0.1-2.3-0.2c-0.7-0.1-1.4-0.3-2.1-0.6c-0.6-0.2-1.1-0.4-1.7-0.5
	c-0.6-0.1-1.3-0.2-1.9-0.2c-0.6,0-1.3,0.1-1.9,0.2c-0.6,0.1-1.2,0.3-1.7,0.5c-0.7,0.3-1.4,0.5-2.1,0.6c-0.7,0.1-1.5,0.2-2.3,0.2
	c-0.6,0-1.3,0-1.9-0.1L0.2,49.4L0.2,49.4L0.2,49.4z"/>
</svg>
