<?xml version="1.0" encoding="utf-8"?>
<!-- Generator: Adobe Illustrator 21.1.0, SVG Export Plug-In . SVG Version: 6.00 Build 0)  -->
<svg version="1.1" id="Слой_1" xmlns="http://www.w3.org/2000/svg" xmlns:xlink="http://www.w3.org/1999/xlink" x="0px" y="0px"
	 viewBox="0 0 51.9 51.7" style="enable-background:new 0 0 51.9 51.7;" xml:space="preserve">
<style type="text/css">
	.st0{fill:#2B2A29;}
</style>
<path class="st0" d="M50,19.5c-0.6,0-1.3-0.1-1.9-0.2c-0.6-0.1-1.2-0.3-1.7-0.5c-0.7-0.3-1.4-0.5-2.1-0.6c-0.7-0.1-1.5-0.2-2.3-0.2
	c-0.8,0-1.5,0.1-2.3,0.2c-0.7,0.1-1.4,0.3-2.1,0.6c-0.6,0.2-1.1,0.4-1.7,0.5c-0.6,0.1-1.3,0.2-1.9,0.2c-0.6,0-1.3-0.1-1.9-0.2
	c-0.6-0.1-1.2-0.3-1.7-0.5c-0.7-0.3-1.4-0.5-2.1-0.6c-0.7-0.1-1.5-0.2-2.3-0.2c-0.8,0-1.5,0.1-2.3,0.2c-0.7,0.1-1.4,0.3-2.1,0.6
	c-0.6,0.2-1.1,0.4-1.7,0.5c-0.6,0.1-1.3,0.2-1.9,0.2c-0.6,0-1.3-0.1-1.9-0.2c-0.6-0.1-1.2-0.3-1.7-0.5c-0.7-0.3-1.4-0.5-2.1-0.6
	c-0.7-0.1-1.5-0.2-2.3-0.2c-0.8,0-1.5,0.1-2.3,0.2c-0.7,0.1-1.4,0.3-2.1,0.6c-0.6,0.2-1.1,0.4-1.7,0.5c-0.6,0.1-1.3,0.2-1.9,0.2
	c-0.6,0-1.2,0-1.8-0.2l-0.1,0v2.1c0.6,0.1,1.3,0.1,1.9,0.1c0.8,0,1.5-0.1,2.3-0.2c0.7-0.1,1.4-0.3,2.1-0.6c0.6-0.2,1.1-0.4,1.7-0.5
	c0.6-0.1,1.3-0.2,1.9-0.2l0.1,0v1.8c0.6,0,1.2,0.1,1.8,0.2c0.6,0.1,1.2,0.3,1.7,0.5c0.7,0.3,1.4,0.5,2.1,0.6
	c0.7,0.1,1.5,0.2,2.3,0.2c0.7,0,1.4-0.1,2.1-0.2v-1.8l0.1,0c0.7-0.1,1.4-0.3,2.1-0.6c0.6-0.2,1.1-0.4,1.7-0.5
	c0.6-0.1,1.3-0.2,1.9-0.2c0.6,0,1.3,0.1,1.9,0.2c0.6,0.1,1.2,0.3,1.7,0.5c0.7,0.3,1.4,0.5,2.1,0.6c0.5,0.1,1.1,0.2,1.6,0.2l0,0.1
	v1.6c0.2,0,0.4,0,0.6,0c0.8,0,1.5-0.1,2.3-0.2c0.7-0.1,1.4-0.3,2.1-0.6c0.6-0.2,1.1-0.4,1.7-0.5c0.6-0.1,1.3-0.2,1.9-0.2
	c0.5,0,0.9,0,1.4,0.1v-1.2c0-0.2,0-0.4,0-0.6c0.2,0,0.3,0,0.5,0.1c0.6,0.1,1.2,0.3,1.7,0.5c0.7,0.3,1.4,0.5,2.1,0.6
	c0.7,0.1,1.5,0.2,2.3,0.2c0.6,0,1.3,0,1.9-0.1v-2.1l-0.1,0C51.2,19.5,50.6,19.5,50,19.5z"/>
<path class="st0" d="M50,7.5c-0.6,0-1.3-0.1-1.9-0.2c-0.6-0.1-1.2-0.3-1.7-0.5c-0.7-0.3-1.4-0.5-2.1-0.6C43.5,6.1,42.7,6,41.9,6
	c-0.8,0-1.5,0.1-2.3,0.2c-0.7,0.1-1.4,0.3-2.1,0.6C37,7,36.4,7.2,35.8,7.3c-0.6,0.1-1.3,0.2-1.9,0.2c-0.6,0-1.3-0.1-1.9-0.2
	c-0.6-0.1-1.2-0.3-1.7-0.5c-0.7-0.3-1.4-0.5-2.1-0.6C27.4,6.1,26.7,6,25.9,6c-0.8,0-1.5,0.1-2.3,0.2c-0.7,0.1-1.4,0.3-2.1,0.6
	C21,7,20.4,7.2,19.8,7.3c-0.6,0.1-1.3,0.2-1.9,0.2c-0.6,0-1.3-0.1-1.9-0.2c-0.6-0.1-1.2-0.3-1.7-0.5c-0.7-0.3-1.4-0.5-2.1-0.6
	C11.4,6.1,10.7,6,9.9,6C9.1,6,8.4,6.1,7.6,6.2C6.9,6.4,6.2,6.5,5.5,6.8C5,7,4.4,7.2,3.8,7.3C3.2,7.4,2.5,7.5,1.9,7.5
	c-0.6,0-1.2,0-1.8-0.2L0,7.3v2.1c0.6,0.1,1.3,0.1,1.9,0.1c0.8,0,1.5-0.1,2.3-0.2C4.9,9.2,5.6,9,6.3,8.7C6.8,8.5,7.4,8.4,8,8.3
	c0.6-0.1,1.3-0.2,1.9-0.2l0.1,0c0,0.1,0,0.1,0,0.2v1.6c0.6,0,1.2,0.1,1.8,0.2c0.6,0.1,1.2,0.3,1.7,0.5c0.7,0.3,1.4,0.5,2.1,0.6
	c0.7,0.1,1.5,0.2,2.3,0.2c0.8,0,1.5-0.1,2.3-0.2c0.7-0.1,1.4-0.3,2.1-0.6c0.6-0.2,1.1-0.4,1.7-0.5c0.6-0.1,1.3-0.2,1.9-0.2
	c0.6,0,1.3,0.1,1.9,0.2c0.6,0.1,1.2,0.3,1.7,0.5c0.7,0.3,1.4,0.5,2.1,0.6c0.7,0.1,1.5,0.2,2.3,0.2c0.8,0,1.5-0.1,2.3-0.2
	c0.7-0.1,1.4-0.3,2.1-0.6l0.1,0c-0.6-0.4-1.1-0.9-1.8-1.2c0.6-0.1,1.1-0.3,1.7-0.5c0.6-0.2,1.1-0.4,1.7-0.5c0.6-0.1,1.3-0.2,1.9-0.2
	s1.3,0.1,1.9,0.2c0.6,0.1,1.2,0.3,1.7,0.5C46.3,9,47,9.2,47.7,9.3c0.7,0.1,1.5,0.2,2.3,0.2c0.6,0,1.3,0,1.9-0.1V7.3l-0.1,0
	C51.2,7.4,50.6,7.5,50,7.5z"/>
<path class="st0" d="M50,13.5c-0.6,0-1.3-0.1-1.9-0.2c-0.6-0.1-1.2-0.3-1.7-0.5c-0.7-0.3-1.4-0.5-2.1-0.6c-0.7-0.1-1.5-0.2-2.3-0.2
	c-0.8,0-1.5,0.1-2.3,0.2c-0.7,0.1-1.4,0.3-2.1,0.6c-0.6,0.2-1.1,0.4-1.7,0.5c-0.6,0.1-1.3,0.2-1.9,0.2c-0.6,0-1.3-0.1-1.9-0.2
	c-0.6-0.1-1.2-0.3-1.7-0.5c-0.7-0.3-1.4-0.5-2.1-0.6c-0.7-0.1-1.5-0.2-2.3-0.2c-0.8,0-1.5,0.1-2.3,0.2c-0.7,0.1-1.4,0.3-2.1,0.6
	c-0.6,0.2-1.1,0.4-1.7,0.5c-0.6,0.1-1.3,0.2-1.9,0.2c-0.6,0-1.3-0.1-1.9-0.2c-0.6-0.1-1.2-0.3-1.7-0.5c-0.7-0.3-1.4-0.5-2.1-0.6
	c-0.7-0.1-1.5-0.2-2.3-0.2c-0.8,0-1.5,0.1-2.3,0.2c-0.7,0.1-1.4,0.3-2.1,0.6c-0.6,0.2-1.1,0.4-1.7,0.5c-0.6,0.1-1.3,0.2-1.9,0.2
	c-0.6,0-1.2,0-1.8-0.2l-0.1,0v2.1c0.6,0.1,1.3,0.1,1.9,0.1c0.8,0,1.5-0.1,2.3-0.2c0.7-0.1,1.4-0.3,2.1-0.6c0.6-0.2,1.1-0.4,1.7-0.5
	c0.6-0.1,1.3-0.2,1.9-0.2l0.1,0v1.8c0.6,0,1.2,0.1,1.8,0.2c0.6,0.1,1.2,0.3,1.7,0.5c0.7,0.3,1.4,0.5,2.1,0.6
	c0.7,0.1,1.5,0.2,2.3,0.2c0.7,0,1.4-0.1,2.1-0.2v-1.8l0.1,0c0.1,0,0.2,0,0.3-0.1h5.7c2.2,0,4,0.6,5.2,1.8c0.1,0,0.2,0,0.3,0.1
	c0.7,0.1,1.5,0.2,2.3,0.2c0.8,0,1.5-0.1,2.3-0.2c0.7-0.1,1.4-0.3,2.1-0.6c0.6-0.2,1.1-0.4,1.7-0.5c0.6-0.1,1.3-0.2,1.9-0.2
	c0.2,0,0.3,0,0.5,0c-0.2-0.6-0.5-1.2-0.9-1.8c0.1,0,0.2,0,0.3,0c0.6,0,1.3,0.1,1.9,0.2c0.6,0.1,1.2,0.3,1.7,0.5
	c0.7,0.3,1.4,0.5,2.1,0.6c0.7,0.1,1.5,0.2,2.3,0.2c0.6,0,1.3-0.1,1.9-0.1v-2.1l-0.1,0C51.2,13.4,50.6,13.5,50,13.5z"/>
<path class="st0" d="M50,25.5c-0.6,0-1.3-0.1-1.9-0.2c-0.6-0.1-1.2-0.3-1.7-0.5c-0.7-0.3-1.4-0.5-2.1-0.6c-0.7-0.1-1.5-0.2-2.3-0.2
	c-0.8,0-1.5,0.1-2.3,0.2c-0.7,0.1-1.4,0.3-2.1,0.6c-0.6,0.2-1.1,0.4-1.7,0.5c-0.6,0.1-1.3,0.2-1.9,0.2c-0.6,0-1.3-0.1-1.9-0.2
	c-0.6-0.1-1.2-0.3-1.7-0.5c-0.7-0.3-1.4-0.5-2.1-0.6c-0.7-0.1-1.5-0.2-2.3-0.2c-0.8,0-1.5,0.1-2.3,0.2c-0.7,0.1-1.4,0.3-2.1,0.6
	c-0.6,0.2-1.1,0.4-1.7,0.5c-0.6,0.1-1.3,0.2-1.9,0.2c-0.6,0-1.3-0.1-1.9-0.2c-0.6-0.1-1.2-0.3-1.7-0.5c-0.7-0.3-1.4-0.5-2.1-0.6
	c-0.7-0.1-1.5-0.2-2.3-0.2c-0.8,0-1.5,0.1-2.3,0.2c-0.7,0.1-1.4,0.3-2.1,0.6c-0.6,0.2-1.1,0.4-1.7,0.5c-0.6,0.1-1.3,0.2-1.9,0.2
	c-0.6,0-1.2,0-1.8-0.2l-0.1,0v2.1c0.6,0.1,1.3,0.1,1.9,0.1c0.8,0,1.5-0.1,2.3-0.2c0.7-0.1,1.4-0.3,2.1-0.6c0.6-0.2,1.1-0.4,1.7-0.5
	c0.6-0.1,1.3-0.2,1.9-0.2l0.1,0v1.8c0.6,0,1.2,0.1,1.8,0.2c0.6,0.1,1.2,0.3,1.7,0.5c0.7,0.3,1.4,0.5,2.1,0.6
	c0.7,0.1,1.5,0.2,2.3,0.2c0.7,0,1.4-0.1,2.1-0.2v-1.8l0.1,0c0.7-0.1,1.4-0.3,2.1-0.6c0.6-0.2,1.1-0.4,1.7-0.5
	c0.6-0.1,1.3-0.2,1.9-0.2c0.6,0,1.3,0.1,1.9,0.2c0.6,0.1,1.2,0.3,1.7,0.5c0.7,0.3,1.4,0.5,2.1,0.6c0.5,0.1,1.1,0.2,1.6,0.2v1.8
	c0.2,0,0.4,0,0.6,0c0.8,0,1.5-0.1,2.3-0.2c0.7-0.1,1.4-0.3,2.1-0.6c0.6-0.2,1.1-0.4,1.7-0.5c0.6-0.1,1.3-0.2,1.9-0.2
	c0.5,0,0.9,0,1.4,0.1v-1.8c0.2,0,0.3,0,0.5,0.1c0.6,0.1,1.2,0.3,1.7,0.5c0.7,0.3,1.4,0.5,2.1,0.6c0.7,0.1,1.5,0.2,2.3,0.2
	c0.6,0,1.3,0,1.9-0.1v-2.1l-0.1,0C51.2,25.5,50.6,25.5,50,25.5z"/>
<path class="st0" d="M50,31.5c-0.6,0-1.3-0.1-1.9-0.2c-0.6-0.1-1.2-0.3-1.7-0.5c-0.7-0.3-1.4-0.5-2.1-0.6c-0.7-0.1-1.5-0.2-2.3-0.2
	c-0.8,0-1.5,0.1-2.3,0.2c-0.7,0.1-1.4,0.3-2.1,0.6c-0.6,0.2-1.1,0.4-1.7,0.5c-0.6,0.1-1.3,0.2-1.9,0.2c-0.6,0-1.3-0.1-1.9-0.2
	c-0.6-0.1-1.2-0.3-1.7-0.5c-0.7-0.3-1.4-0.5-2.1-0.6c-0.7-0.1-1.5-0.2-2.3-0.2c-0.8,0-1.5,0.1-2.3,0.2c-0.7,0.1-1.4,0.3-2.1,0.6
	c-0.6,0.2-1.1,0.4-1.7,0.5c-0.6,0.1-1.3,0.2-1.9,0.2c-0.6,0-1.3-0.1-1.9-0.2c-0.6-0.1-1.2-0.3-1.7-0.5c-0.7-0.3-1.4-0.5-2.1-0.6
	c-0.7-0.1-1.5-0.2-2.3-0.2c-0.8,0-1.5,0.1-2.3,0.2c-0.7,0.1-1.4,0.3-2.1,0.6c-0.6,0.2-1.1,0.4-1.7,0.5c-0.6,0.1-1.3,0.2-1.9,0.2
	c-0.6,0-1.2,0-1.8-0.2l-0.1,0v2.1c0.6,0.1,1.3,0.1,1.9,0.1c0.8,0,1.5-0.1,2.3-0.2c0.7-0.1,1.4-0.3,2.1-0.6c0.6-0.2,1.1-0.4,1.7-0.5
	c0.6-0.1,1.3-0.2,1.9-0.2l0.1,0v1.8c0.6,0,1.2,0.1,1.8,0.2c0.6,0.1,1.2,0.3,1.7,0.5c0.7,0.3,1.4,0.5,2.1,0.6
	c0.7,0.1,1.5,0.2,2.3,0.2c0.7,0,1.4-0.1,2.1-0.2v-1.8l0.1,0c0.7-0.1,1.4-0.3,2.1-0.6c0.6-0.2,1.1-0.4,1.7-0.5
	c0.6-0.1,1.3-0.2,1.9-0.2c0.6,0,1.3,0.1,1.9,0.2c0.6,0.1,1.2,0.3,1.7,0.5c0.7,0.3,1.4,0.5,2.1,0.6c0.5,0.1,1.1,0.2,1.6,0.2
	c0,0.6-0.1,1.2-0.3,1.7c0.3,0,0.6,0,0.9,0c0.8,0,1.5-0.1,2.3-0.2c0.7-0.1,1.4-0.3,2.1-0.6c0.6-0.2,1.1-0.4,1.7-0.5
	c0.6-0.1,1.3-0.2,1.9-0.2c0.5,0,0.9,0,1.4,0.1v-1.8c0.2,0,0.3,0,0.5,0.1c0.6,0.1,1.2,0.3,1.7,0.5c0.7,0.3,1.4,0.5,2.1,0.6
	c0.7,0.1,1.5,0.2,2.3,0.2c0.6,0,1.3,0,1.9-0.1v-2.1l-0.1,0C51.2,31.5,50.6,31.5,50,31.5z"/>
<path class="st0" d="M50,49.6c-0.6,0-1.3-0.1-1.9-0.2c-0.6-0.1-1.2-0.3-1.7-0.5c-0.7-0.3-1.4-0.5-2.1-0.6c-0.7-0.1-1.5-0.2-2.3-0.2
	c-0.8,0-1.5,0.1-2.3,0.2c-0.7,0.1-1.4,0.3-2.1,0.6c-0.6,0.2-1.1,0.4-1.7,0.5c-0.6,0.1-1.3,0.2-1.9,0.2c-0.6,0-1.3-0.1-1.9-0.2
	c-0.6-0.1-1.2-0.3-1.7-0.5c-0.7-0.3-1.4-0.5-2.1-0.6c-0.7-0.1-1.5-0.2-2.3-0.2c-0.8,0-1.5,0.1-2.3,0.2c-0.7,0.1-1.4,0.3-2.1,0.6
	c-0.6,0.2-1.1,0.4-1.7,0.5c-0.6,0.1-1.3,0.2-1.9,0.2c-0.6,0-1.3-0.1-1.9-0.2c-0.6-0.1-1.2-0.3-1.7-0.5c-0.7-0.3-1.4-0.5-2.1-0.6
	c-0.7-0.1-1.5-0.2-2.3-0.2c-0.8,0-1.5,0.1-2.3,0.2c-0.7,0.1-1.4,0.3-2.1,0.6c-0.6,0.2-1.1,0.4-1.7,0.5c-0.6,0.1-1.3,0.2-1.9,0.2
	c-0.6,0-1.2,0-1.8-0.2l-0.1,0v2.1c0.6,0.1,1.3,0.1,1.9,0.1c0.8,0,1.5-0.1,2.3-0.2c0.7-0.1,1.4-0.3,2.1-0.6c0.6-0.2,1.1-0.4,1.7-0.5
	c0.6-0.1,1.3-0.2,1.9-0.2c0.6,0,1.3,0.1,1.9,0.2c0.6,0.1,1.2,0.3,1.7,0.5c0.7,0.3,1.4,0.5,2.1,0.6c0.7,0.1,1.5,0.2,2.3,0.2
	c0.8,0,1.5-0.1,2.3-0.2c0.7-0.1,1.4-0.3,2.1-0.6c0.6-0.2,1.1-0.4,1.7-0.5c0.6-0.1,1.3-0.2,1.9-0.2c0.6,0,1.3,0.1,1.9,0.2
	c0.6,0.1,1.2,0.3,1.7,0.5c0.7,0.3,1.4,0.5,2.1,0.6c0.7,0.1,1.5,0.2,2.3,0.2c0.8,0,1.5-0.1,2.3-0.2c0.7-0.1,1.4-0.3,2.1-0.6
	c0.6-0.2,1.1-0.4,1.7-0.5c0.6-0.1,1.3-0.2,1.9-0.2c0.6,0,1.3,0.1,1.9,0.2c0.6,0.1,1.2,0.3,1.7,0.5c0.7,0.3,1.4,0.5,2.1,0.6
	c0.7,0.1,1.5,0.2,2.3,0.2c0.6,0,1.3,0,1.9-0.1v-2.1l-0.1,0C51.2,49.5,50.6,49.6,50,49.6z"/>
<path class="st0" d="M50,43.6c-0.6,0-1.3-0.1-1.9-0.2c-0.6-0.1-1.2-0.3-1.7-0.5c-0.7-0.3-1.4-0.5-2.1-0.6c-0.7-0.1-1.5-0.2-2.3-0.2
	c-0.8,0-1.5,0.1-2.3,0.2c-0.7,0.1-1.4,0.3-2.1,0.6c-0.6,0.2-1.1,0.4-1.7,0.5c-0.6,0.1-1.3,0.2-1.9,0.2c-0.6,0-1.3-0.1-1.9-0.2
	c-0.6-0.1-1.2-0.3-1.7-0.5c-0.7-0.3-1.4-0.5-2.1-0.6c-0.7-0.1-1.5-0.2-2.3-0.2c-0.8,0-1.5,0.1-2.3,0.2c-0.7,0.1-1.4,0.3-2.1,0.6
	c-0.6,0.2-1.1,0.4-1.7,0.5c-0.6,0.1-1.3,0.2-1.9,0.2c-0.6,0-1.3-0.1-1.9-0.2c-0.6-0.1-1.2-0.3-1.7-0.5c-0.7-0.3-1.4-0.5-2.1-0.6
	c-0.7-0.1-1.5-0.2-2.3-0.2c-0.8,0-1.5,0.1-2.3,0.2c-0.7,0.1-1.4,0.3-2.1,0.6c-0.6,0.2-1.1,0.4-1.7,0.5c-0.6,0.1-1.3,0.2-1.9,0.2
	c-0.6,0-1.2,0-1.8-0.2l-0.1,0v2.1c0.6,0.1,1.3,0.1,1.9,0.1c0.8,0,1.5-0.1,2.3-0.2c0.7-0.1,1.4-0.3,2.1-0.6c0.6-0.2,1.1-0.4,1.7-0.5
	c0.6-0.1,1.3-0.2,1.9-0.2l0.1,0v1.8c0.6,0,1.2,0.1,1.8,0.2c0.6,0.1,1.2,0.3,1.7,0.5c0.7,0.3,1.4,0.5,2.1,0.6
	c0.7,0.1,1.5,0.2,2.3,0.2c0.8,0,1.5-0.1,2.3-0.2c0.7-0.1,1.4-0.3,2.1-0.6c0.6-0.2,1.1-0.4,1.7-0.5c0.6-0.1,1.3-0.2,1.9-0.2
	c0.6,0,1.3,0.1,1.9,0.2c0.6,0.1,1.2,0.3,1.7,0.5c0.7,0.3,1.4,0.5,2.1,0.6c0.4,0.1,0.8,0.1,1.3,0.2c1.6-0.5,3.2-1.3,4.5-2.2
	c0.3-0.1,0.6-0.2,0.8-0.3c0.6-0.2,1.1-0.4,1.7-0.5c0.6-0.1,1.3-0.2,1.9-0.2c0.6,0,1.3,0.1,1.9,0.2c0.6,0.1,1.2,0.3,1.7,0.5
	c0.7,0.3,1.4,0.5,2.1,0.6c0.7,0.1,1.5,0.2,2.3,0.2c0.6,0,1.3-0.1,1.9-0.1v-2.1l-0.1,0C51.2,43.5,50.6,43.6,50,43.6z"/>
<path class="st0" d="M50,37.6c-0.6,0-1.3-0.1-1.9-0.2c-0.6-0.1-1.2-0.3-1.7-0.5c-0.7-0.3-1.4-0.5-2.1-0.6c-0.7-0.1-1.5-0.2-2.3-0.2
	c-0.8,0-1.5,0.1-2.3,0.2c-0.7,0.1-1.4,0.3-2.1,0.6c-0.6,0.2-1.1,0.4-1.7,0.5c-0.6,0.1-1.3,0.2-1.9,0.2c-0.6,0-1.3-0.1-1.9-0.2
	c-0.6-0.1-1.2-0.3-1.7-0.5c-0.7-0.3-1.4-0.5-2.1-0.6c-0.7-0.1-1.5-0.2-2.3-0.2c-0.8,0-1.5,0.1-2.3,0.2c-0.7,0.1-1.4,0.3-2.1,0.6
	c-0.6,0.2-1.1,0.4-1.7,0.5c-0.6,0.1-1.3,0.2-1.9,0.2c-0.6,0-1.3-0.1-1.9-0.2c-0.6-0.1-1.2-0.3-1.7-0.5c-0.7-0.3-1.4-0.5-2.1-0.6
	c-0.7-0.1-1.5-0.2-2.3-0.2c-0.8,0-1.5,0.1-2.3,0.2c-0.7,0.1-1.4,0.3-2.1,0.6c-0.6,0.2-1.1,0.4-1.7,0.5c-0.6,0.1-1.3,0.2-1.9,0.2
	c-0.6,0-1.2,0-1.8-0.2l-0.1,0v2.1c0.6,0.1,1.3,0.1,1.9,0.1c0.8,0,1.5-0.1,2.3-0.2c0.7-0.1,1.4-0.3,2.1-0.6c0.6-0.2,1.1-0.4,1.7-0.5
	c0.6-0.1,1.3-0.2,1.9-0.2l0.1,0v1.8c0.6,0,1.2,0.1,1.8,0.2c0.6,0.1,1.2,0.3,1.7,0.5c0.7,0.3,1.4,0.5,2.1,0.6
	c0.7,0.1,1.5,0.2,2.3,0.2c0.8,0,1.5-0.1,2.3-0.2c0.7-0.1,1.4-0.3,2.1-0.6c0.6-0.2,1.1-0.4,1.7-0.5c0.6-0.1,1.3-0.2,1.9-0.2
	c0.6,0,1.3,0.1,1.9,0.2c0.6,0.1,1.2,0.3,1.7,0.5c0.7,0.3,1.4,0.5,2.1,0.6c0.7,0.1,1.5,0.2,2.3,0.2c0.8,0,1.5-0.1,2.3-0.2
	c0.7-0.1,1.4-0.3,2.1-0.6c0.6-0.2,1.1-0.4,1.7-0.5c0.6-0.1,1.3-0.2,1.9-0.2l0.1,0c0.3-0.5,0.5-1.1,0.7-1.7c0.4,0,0.7,0.1,1.1,0.1
	c0.6,0.1,1.2,0.3,1.7,0.5c0.7,0.3,1.4,0.5,2.1,0.6c0.7,0.1,1.5,0.2,2.3,0.2c0.6,0,1.3,0,1.9-0.1v-2.1l-0.1,0
	C51.2,37.5,50.6,37.6,50,37.6z"/>
<path class="st0" d="M50,1.5c-0.6,0-1.3-0.1-1.9-0.2c-0.6-0.1-1.2-0.3-1.7-0.5c-0.7-0.3-1.4-0.5-2.1-0.6C43.5,0.1,42.7,0,41.9,0
	c-0.8,0-1.5,0.1-2.3,0.2c-0.7,0.1-1.4,0.3-2.1,0.6C37,1,36.4,1.2,35.8,1.3c-0.6,0.1-1.3,0.2-1.9,0.2c-0.6,0-1.3-0.1-1.9-0.2
	c-0.6-0.1-1.2-0.3-1.7-0.5c-0.7-0.3-1.4-0.5-2.1-0.6C27.4,0.1,26.7,0,25.9,0c-0.8,0-1.5,0.1-2.3,0.2c-0.7,0.1-1.4,0.3-2.1,0.6
	C21,1,20.4,1.2,19.8,1.3c-0.6,0.1-1.3,0.2-1.9,0.2c-0.6,0-1.3-0.1-1.9-0.2c-0.6-0.1-1.2-0.3-1.7-0.5c-0.7-0.3-1.4-0.5-2.1-0.6
	C11.4,0.1,10.7,0,9.9,0C9.1,0,8.4,0.1,7.6,0.2C6.9,0.3,6.2,0.5,5.5,0.8C5,1,4.4,1.2,3.8,1.3C3.2,1.4,2.5,1.5,1.9,1.5
	c-0.6,0-1.2,0-1.8-0.2L0,1.3v2.1c0.6,0.1,1.3,0.1,1.9,0.1c0.8,0,1.5-0.1,2.3-0.2C4.9,3.2,5.6,3,6.3,2.7C6.8,2.5,7.4,2.3,8,2.2
	c0.6-0.1,1.3-0.2,1.9-0.2c0.6,0,1.3,0.1,1.9,0.2c0.6,0.1,1.2,0.3,1.7,0.5c0.7,0.3,1.4,0.5,2.1,0.6c0.7,0.1,1.5,0.2,2.3,0.2
	c0.8,0,1.5-0.1,2.3-0.2c0.7-0.1,1.4-0.3,2.1-0.6c0.6-0.2,1.1-0.4,1.7-0.5c0.6-0.1,1.3-0.2,1.9-0.2c0.6,0,1.3,0.1,1.9,0.2
	c0.6,0.1,1.2,0.3,1.7,0.5C30.2,3,31,3.2,31.7,3.3c0.7,0.1,1.5,0.2,2.3,0.2c0.8,0,1.5-0.1,2.3-0.2c0.7-0.1,1.4-0.3,2.1-0.6
	c0.6-0.2,1.1-0.4,1.7-0.5c0.6-0.1,1.3-0.2,1.9-0.2s1.3,0.1,1.9,0.2c0.6,0.1,1.2,0.3,1.7,0.5C46.3,3,47,3.2,47.7,3.3
	c0.7,0.1,1.5,0.2,2.3,0.2c0.6,0,1.3,0,1.9-0.1V1.3l-0.1,0C51.2,1.4,50.6,1.5,50,1.5z"/>
</svg>
