<svg xmlns="http://www.w3.org/2000/svg" width="16" height="12" viewBox="0 0 16 12">
  <metadata><?xpacket begin="﻿" id="W5M0MpCehiHzreSzNTczkc9d"?>
<x:xmpmeta xmlns:x="adobe:ns:meta/" x:xmptk="Adobe XMP Core 5.6-c138 79.159824, 2016/09/14-01:09:01        ">
   <rdf:RDF xmlns:rdf="http://www.w3.org/1999/02/22-rdf-syntax-ns#">
      <rdf:Description rdf:about=""/>
   </rdf:RDF>
</x:xmpmeta>
                                                                                                    
                                                                                                    
                                                                                                    
                                                                                                    
                                                                                                    
                                                                                                    
                                                                                                    
                                                                                                    
                                                                                                    
                                                                                                    
                                                                                                    
                                                                                                    
                                                                                                    
                                                                                                    
                                                                                                    
                                                                                                    
                                                                                                    
                                                                                                    
                                                                                                    
                                                                                                    
                           
<?xpacket end="w"?></metadata>
<defs>
    <style>
      .cls-1 {
        fill: #2bdafa;
        fill-rule: evenodd;
      }
    </style>
  </defs>
  <path id="Forma_1" data-name="Forma 1" class="cls-1" d="M654.1,940H641.9a1.854,1.854,0,0,0-1.9,1.8v8.4a1.854,1.854,0,0,0,1.9,1.8h12.2a1.854,1.854,0,0,0,1.9-1.8v-8.4A1.854,1.854,0,0,0,654.1,940Zm0,10.41H641.9a0.266,0.266,0,0,1-.289-0.211v-7.288l5.519,4.6a0.635,0.635,0,0,0,.4.146h0.932a0.635,0.635,0,0,0,.4-0.146l5.519-4.6V950.2A0.266,0.266,0,0,1,654.1,950.41Zm-6.1-4.33-5.368-4.49h10.736Z" transform="translate(-640 -940)"/>
</svg>
