<svg xmlns="http://www.w3.org/2000/svg" width="29" height="16" viewBox="0 0 29 16">
  <metadata><?xpacket begin="﻿" id="W5M0MpCehiHzreSzNTczkc9d"?>
<x:xmpmeta xmlns:x="adobe:ns:meta/" x:xmptk="Adobe XMP Core 5.6-c138 79.159824, 2016/09/14-01:09:01        ">
   <rdf:RDF xmlns:rdf="http://www.w3.org/1999/02/22-rdf-syntax-ns#">
      <rdf:Description rdf:about=""/>
   </rdf:RDF>
</x:xmpmeta>
                                                                                                    
                                                                                                    
                                                                                                    
                                                                                                    
                                                                                                    
                                                                                                    
                                                                                                    
                                                                                                    
                                                                                                    
                                                                                                    
                                                                                                    
                                                                                                    
                                                                                                    
                                                                                                    
                                                                                                    
                                                                                                    
                                                                                                    
                                                                                                    
                                                                                                    
                                                                                                    
                           
<?xpacket end="w"?></metadata>
<defs>
    <style>
      .cls-1 {
        fill-rule: evenodd;
      }
    </style>
  </defs>
  <path id="Forma_1" data-name="Forma 1" class="cls-1" d="M182.813,1315.16a0.724,0.724,0,0,1,1.033-.07l6.628,5.74H193.3a1.879,1.879,0,0,1-.315-0.14l-6.595-3.88a1.484,1.484,0,0,1-.524-2.02,1.464,1.464,0,0,1,2.006-.52l6.595,3.88a1.5,1.5,0,0,1,.51.52l6.63-2.02a0.966,0.966,0,0,1,.606.02l7.328,2.95a0.918,0.918,0,0,1-.34,1.77,0.819,0.819,0,0,1-.34-0.07l-0.789-.31,0.054,0.03,2.65,2.7a0.737,0.737,0,0,1-1.043,1.04l-2.434-2.48H190.4l-1.451-.85-6.062-5.25A0.739,0.739,0,0,1,182.813,1315.16Zm24.791,5.67h0.026l-5.8-2.33-7.615,2.33H207.6ZM184.641,1309a2.66,2.66,0,1,0,2.647,2.66A2.653,2.653,0,0,0,184.641,1309Z" transform="translate(-182 -1309)"/>
</svg>
