<svg xmlns="http://www.w3.org/2000/svg" width="55" height="55" viewBox="0 0 55 55">
  <metadata><?xpacket begin="﻿" id="W5M0MpCehiHzreSzNTczkc9d"?>
<x:xmpmeta xmlns:x="adobe:ns:meta/" x:xmptk="Adobe XMP Core 5.6-c138 79.159824, 2016/09/14-01:09:01        ">
   <rdf:RDF xmlns:rdf="http://www.w3.org/1999/02/22-rdf-syntax-ns#">
      <rdf:Description rdf:about=""/>
   </rdf:RDF>
</x:xmpmeta>
                                                                                                    
                                                                                                    
                                                                                                    
                                                                                                    
                                                                                                    
                                                                                                    
                                                                                                    
                                                                                                    
                                                                                                    
                                                                                                    
                                                                                                    
                                                                                                    
                                                                                                    
                                                                                                    
                                                                                                    
                                                                                                    
                                                                                                    
                                                                                                    
                                                                                                    
                                                                                                    
                           
<?xpacket end="w"?></metadata>
<defs>
    <style>
      .cls-1 {
        fill: #fff;
        fill-rule: evenodd;
      }
    </style>
  </defs>
  <path id="Forma_1" data-name="Forma 1" class="cls-1" d="M1426.83,3031a9.174,9.174,0,0,0-9.16,9.17c0,4.38,6.49,13.25,8.01,15.27,0,0.66,0,1.3-.01,1.89a1.14,1.14,0,0,0,1.11,1.17h0.04a1.147,1.147,0,0,0,1.14-1.11c0.02-.61.02-1.27,0.02-1.94,1.51-2,8.02-10.89,8.02-15.28A9.176,9.176,0,0,0,1426.83,3031Zm0,22.14c-2.52-3.46-6.87-10.06-6.87-12.97a6.875,6.875,0,1,1,13.75,0C1433.71,3043.08,1429.35,3049.68,1426.83,3053.14Zm0-15.27a2.3,2.3,0,1,0,2.3,2.3A2.3,2.3,0,0,0,1426.83,3037.87Zm-32.08,18.34a6.875,6.875,0,1,0,6.87,6.87A6.875,6.875,0,0,0,1394.75,3056.21Zm0,11.46a4.585,4.585,0,1,1,4.58-4.59A4.588,4.588,0,0,1,1394.75,3067.67Zm17.36,4.63a1.148,1.148,0,0,0-1.49.65,25.723,25.723,0,0,1-2.02,4.29,1.151,1.151,0,0,0,.38,1.58,1.214,1.214,0,0,0,.6.17,1.169,1.169,0,0,0,.98-0.55,28.858,28.858,0,0,0,2.2-4.66A1.14,1.14,0,0,0,1412.11,3072.3Zm-6.46,8.36a12.629,12.629,0,0,1-3.99,2.09,1.147,1.147,0,0,0,.35,2.24,1.03,1.03,0,0,0,.35-0.06,14.991,14.991,0,0,0,4.71-2.47,1.156,1.156,0,0,0,.19-1.61A1.138,1.138,0,0,0,1405.65,3080.66Zm10.42-16.64a9.373,9.373,0,0,0-3.57,4.25,1.154,1.154,0,0,0,.54,1.53,1.252,1.252,0,0,0,.5.11,1.152,1.152,0,0,0,1.03-.65,6.828,6.828,0,0,1,2.64-3.24A1.151,1.151,0,0,0,1416.07,3064.02Zm10.34-2.83a1.151,1.151,0,0,0-1.59.3c-0.38.56-1.15,1.33-3.49,1.54a1.142,1.142,0,0,0,.1,2.28h0.11c2.48-.22,4.17-1.05,5.17-2.53A1.142,1.142,0,0,0,1426.41,3061.19Zm-28.94,22.53c3.61-3.85,11.03-12.72,11.03-20.64a13.75,13.75,0,0,0-27.5,0c0,10.24,12.43,22.11,12.96,22.61a1.145,1.145,0,0,0,.79.31c0.83,0,1.63-.03,2.38-0.09A1.135,1.135,0,0,0,1397.47,3083.72Zm-2.72-.48c-2.71-2.76-11.46-12.3-11.46-20.16a11.46,11.46,0,0,1,22.92,0C1406.21,3070.94,1397.46,3080.48,1394.75,3083.24Z" transform="translate(-1381 -3031)"/>
</svg>
