<svg xmlns="http://www.w3.org/2000/svg" width="19" height="24" viewBox="0 0 19 24">
  <metadata><?xpacket begin="﻿" id="W5M0MpCehiHzreSzNTczkc9d"?>
<x:xmpmeta xmlns:x="adobe:ns:meta/" x:xmptk="Adobe XMP Core 5.6-c138 79.159824, 2016/09/14-01:09:01        ">
   <rdf:RDF xmlns:rdf="http://www.w3.org/1999/02/22-rdf-syntax-ns#">
      <rdf:Description rdf:about=""/>
   </rdf:RDF>
</x:xmpmeta>
                                                                                                    
                                                                                                    
                                                                                                    
                                                                                                    
                                                                                                    
                                                                                                    
                                                                                                    
                                                                                                    
                                                                                                    
                                                                                                    
                                                                                                    
                                                                                                    
                                                                                                    
                                                                                                    
                                                                                                    
                                                                                                    
                                                                                                    
                                                                                                    
                                                                                                    
                                                                                                    
                           
<?xpacket end="w"?></metadata>
<defs>
    <style>
      .cls-1 {
        fill: #2bdafa;
        fill-rule: evenodd;
      }
    </style>
  </defs>
  <path id="Forma_1" data-name="Forma 1" class="cls-1" d="M1227.64,616.473a11.823,11.823,0,0,1-.82,5.963c-0.09.163-.17,0.322-0.25,0.475-1.76.551-3.61,1.592-3.92,2.739a1.288,1.288,0,0,0,.31,1.243,1.569,1.569,0,0,0,1.18.536c1.08,0,2.21-1.052,3.43-3.215a33.526,33.526,0,0,1,3.56-.427c1.48,1.546,2.67,2.3,3.65,2.3a1.64,1.64,0,0,0,1.46-.87,1.274,1.274,0,0,0,0-1.227c-0.62-1.133-3.01-1.594-4.44-1.7-0.13-.138-0.25-0.28-0.38-0.427a12.026,12.026,0,0,1-2.29-5.546c-0.03-.3-0.06-0.552-0.09-0.735a0.767,0.767,0,0,0-.77-0.8,0.743,0.743,0,0,0-.56.26,0.887,0.887,0,0,0-.17.745C1227.56,615.971,1227.59,616.22,1227.64,616.473Zm-3.44,9.419a3.756,3.756,0,0,1,.84-0.647A2.054,2.054,0,0,1,1224.2,625.892Zm10.51-1.339a1.918,1.918,0,0,1-.75-0.32A4.066,4.066,0,0,1,1234.71,624.553Zm-5.77-3.793a10.508,10.508,0,0,0,.92,1.554c-0.17.016-1.32,0.168-1.43,0.182A9.162,9.162,0,0,0,1228.94,620.76Zm-2.86-13.767-6.09,6.566v17.446h19.02V606.993h-12.93Zm-0.53,2.761v2.909h-2.7Zm11.99,19.75h-16.08V614.165h5.56V608.5h10.52V629.5h0Z" transform="translate(-1220 -607)"/>
</svg>
