<svg xmlns="http://www.w3.org/2000/svg" width="11.813" height="31.031" viewBox="0 0 11.813 31.031">
  <metadata><?xpacket begin="﻿" id="W5M0MpCehiHzreSzNTczkc9d"?>
<x:xmpmeta xmlns:x="adobe:ns:meta/" x:xmptk="Adobe XMP Core 5.6-c138 79.159824, 2016/09/14-01:09:01        ">
   <rdf:RDF xmlns:rdf="http://www.w3.org/1999/02/22-rdf-syntax-ns#">
      <rdf:Description rdf:about=""/>
   </rdf:RDF>
</x:xmpmeta>
                                                                                                    
                                                                                                    
                                                                                                    
                                                                                                    
                                                                                                    
                                                                                                    
                                                                                                    
                                                                                                    
                                                                                                    
                                                                                                    
                                                                                                    
                                                                                                    
                                                                                                    
                                                                                                    
                                                                                                    
                                                                                                    
                                                                                                    
                                                                                                    
                                                                                                    
                                                                                                    
                           
<?xpacket end="w"?></metadata>
<defs>
    <style>
      .cls-1 {
        fill: #c5e2e7;
        fill-rule: evenodd;
      }
    </style>
  </defs>
  <path id="Forma_1" data-name="Forma 1" class="cls-1" d="M677.921,681.983a2.611,2.611,0,1,1-2.737,2.608A2.675,2.675,0,0,1,677.921,681.983Zm5.9,8.67a2.787,2.787,0,0,0-3.072-2.913h-5.593a2.8,2.8,0,0,0-3.09,2.913v8.264a1.149,1.149,0,0,0,1.086.953,1.091,1.091,0,0,0,1.041-.939l0.971,13.161a1.214,1.214,0,0,0,2.356,0h0.863a1.216,1.216,0,0,0,2.358,0l1-13.169a1.041,1.041,0,0,0,1.027.949,1.144,1.144,0,0,0,1.078-.955Z" transform="translate(-672.031 -681.969)"/>
</svg>
