<svg xmlns="http://www.w3.org/2000/svg" width="44" height="44" viewBox="0 0 44 44">
  <metadata><?xpacket begin="﻿" id="W5M0MpCehiHzreSzNTczkc9d"?>
<x:xmpmeta xmlns:x="adobe:ns:meta/" x:xmptk="Adobe XMP Core 5.6-c138 79.159824, 2016/09/14-01:09:01        ">
   <rdf:RDF xmlns:rdf="http://www.w3.org/1999/02/22-rdf-syntax-ns#">
      <rdf:Description rdf:about=""/>
   </rdf:RDF>
</x:xmpmeta>
                                                                                                    
                                                                                                    
                                                                                                    
                                                                                                    
                                                                                                    
                                                                                                    
                                                                                                    
                                                                                                    
                                                                                                    
                                                                                                    
                                                                                                    
                                                                                                    
                                                                                                    
                                                                                                    
                                                                                                    
                                                                                                    
                                                                                                    
                                                                                                    
                                                                                                    
                                                                                                    
                           
<?xpacket end="w"?></metadata>
<defs>
    <style>
      .cls-1 {
        fill: #fcfcfc;
        fill-rule: evenodd;
      }
    </style>
  </defs>
  <path class="cls-1" d="M738.959,915.882a0.686,0.686,0,0,0-.96.151l-11,15.125a0.688,0.688,0,0,0,1.112.809l11-15.125A0.686,0.686,0,0,0,738.959,915.882ZM733.055,902a22,22,0,1,0,22,22A22,22,0,0,0,733.055,902Zm0,42.625A20.625,20.625,0,1,1,753.68,924,20.648,20.648,0,0,1,733.055,944.625Zm-3.437-22.687a3.438,3.438,0,1,0-3.438-3.438A3.438,3.438,0,0,0,729.618,921.938Zm0-5.5a2.063,2.063,0,1,1-2.063,2.063A2.065,2.065,0,0,1,729.618,916.437Zm7.562,9.625a3.438,3.438,0,1,0,3.438,3.438A3.437,3.437,0,0,0,737.18,926.062Zm0,5.5a2.063,2.063,0,1,1,2.063-2.062A2.064,2.064,0,0,1,737.18,931.562Z" transform="translate(-711.063 -902)"/>
</svg>
