<svg xmlns="http://www.w3.org/2000/svg" width="16" height="16" viewBox="0 0 16 16">
  <metadata><?xpacket begin="﻿" id="W5M0MpCehiHzreSzNTczkc9d"?>
<x:xmpmeta xmlns:x="adobe:ns:meta/" x:xmptk="Adobe XMP Core 5.6-c138 79.159824, 2016/09/14-01:09:01        ">
   <rdf:RDF xmlns:rdf="http://www.w3.org/1999/02/22-rdf-syntax-ns#">
      <rdf:Description rdf:about=""/>
   </rdf:RDF>
</x:xmpmeta>
                                                                                                    
                                                                                                    
                                                                                                    
                                                                                                    
                                                                                                    
                                                                                                    
                                                                                                    
                                                                                                    
                                                                                                    
                                                                                                    
                                                                                                    
                                                                                                    
                                                                                                    
                                                                                                    
                                                                                                    
                                                                                                    
                                                                                                    
                                                                                                    
                                                                                                    
                                                                                                    
                           
<?xpacket end="w"?></metadata>
<defs>
    <style>
      .cls-1 {
        fill: #2bdafa;
        fill-rule: evenodd;
      }
    </style>
  </defs>
  <path id="Forma_1" data-name="Forma 1" class="cls-1" d="M648.031,901.031a7,7,0,1,1-7,7,7.008,7.008,0,0,1,7-7m0-1a8,8,0,1,0,8,8,8,8,0,0,0-8-8h0Zm4.46,10.675-0.045-.137a1.266,1.266,0,0,0-.773-0.73l-1.183-.323a1.158,1.158,0,0,0-1.012.265l-0.428.428a4.541,4.541,0,0,1-3.194-3.195l0.427-.428a1.157,1.157,0,0,0,.265-1.013l-0.322-1.182a1.266,1.266,0,0,0-.732-0.774l-0.135-.045a1.071,1.071,0,0,0-1,.237l-0.64.64a1.207,1.207,0,0,0-.188.44,7.555,7.555,0,0,0,7.624,7.641,1.178,1.178,0,0,0,.46-0.185l0.641-.641A1.07,1.07,0,0,0,652.491,910.706Z" transform="translate(-640.031 -900.031)"/>
</svg>
