<svg xmlns="http://www.w3.org/2000/svg" width="44" height="50" viewBox="0 0 44 50">
  <metadata><?xpacket begin="﻿" id="W5M0MpCehiHzreSzNTczkc9d"?>
<x:xmpmeta xmlns:x="adobe:ns:meta/" x:xmptk="Adobe XMP Core 5.6-c138 79.159824, 2016/09/14-01:09:01        ">
   <rdf:RDF xmlns:rdf="http://www.w3.org/1999/02/22-rdf-syntax-ns#">
      <rdf:Description rdf:about=""/>
   </rdf:RDF>
</x:xmpmeta>
                                                                                                    
                                                                                                    
                                                                                                    
                                                                                                    
                                                                                                    
                                                                                                    
                                                                                                    
                                                                                                    
                                                                                                    
                                                                                                    
                                                                                                    
                                                                                                    
                                                                                                    
                                                                                                    
                                                                                                    
                                                                                                    
                                                                                                    
                                                                                                    
                                                                                                    
                                                                                                    
                           
<?xpacket end="w"?></metadata>
<defs>
    <style>
      .cls-1 {
        fill: #2bdafa;
        fill-rule: evenodd;
      }
    </style>
  </defs>
  <path id="Forma_1" data-name="Forma 1" class="cls-1" d="M232.433,1291.44a1.569,1.569,0,0,1-1.571-1.57A18.858,18.858,0,1,0,212,1308.63v-4.69a1.561,1.561,0,0,1,.829-1.38,1.624,1.624,0,0,1,.743-0.19,1.546,1.546,0,0,1,.872.27l9.428,6.25a1.557,1.557,0,0,1,0,2.6l-9.428,6.25a1.579,1.579,0,0,1-2.444-1.3v-4.69a21.875,21.875,0,1,1,22-21.88A1.569,1.569,0,0,1,232.433,1291.44Zm-17.286,22.08,5.025-3.33-5.025-3.33v6.66Z" transform="translate(-190 -1268)"/>
</svg>
