<svg xmlns="http://www.w3.org/2000/svg" width="85" height="65" viewBox="0 0 85 65">
  <metadata><?xpacket begin="﻿" id="W5M0MpCehiHzreSzNTczkc9d"?>
<x:xmpmeta xmlns:x="adobe:ns:meta/" x:xmptk="Adobe XMP Core 5.6-c138 79.159824, 2016/09/14-01:09:01        ">
   <rdf:RDF xmlns:rdf="http://www.w3.org/1999/02/22-rdf-syntax-ns#">
      <rdf:Description rdf:about=""/>
   </rdf:RDF>
</x:xmpmeta>
                                                                                                    
                                                                                                    
                                                                                                    
                                                                                                    
                                                                                                    
                                                                                                    
                                                                                                    
                                                                                                    
                                                                                                    
                                                                                                    
                                                                                                    
                                                                                                    
                                                                                                    
                                                                                                    
                                                                                                    
                                                                                                    
                                                                                                    
                                                                                                    
                                                                                                    
                                                                                                    
                           
<?xpacket end="w"?></metadata>
<defs>
    <style>
      .cls-1 {
        fill: #2bdafa;
        fill-rule: evenodd;
        opacity: 0.3;
      }
    </style>
  </defs>
  <path id="Forma_1" data-name="Forma 1" class="cls-1" d="M1154,522.113S1154.48,509,1142.07,509h-61.14A11.913,11.913,0,0,0,1069,520.868v45.21a7.9,7.9,0,0,0,4.01,6.916,8.576,8.576,0,0,0,8.03,0l8.01-4.6a24.848,24.848,0,0,1,12.36-3.295h40.66A11.912,11.912,0,0,0,1154,553.227V526.189m-4.1,27.038a7.819,7.819,0,0,1-7.83,7.793h-40.66a29,29,0,0,0-14.41,3.84l-8.01,4.6a3.908,3.908,0,0,1-3.93,0,3.862,3.862,0,0,1-1.96-3.386v-45.21a7.819,7.819,0,0,1,7.83-7.792h61.14a7.819,7.819,0,0,1,7.83,7.792v32.359h0Z" transform="translate(-1069 -509)"/>
</svg>
