<svg xmlns="http://www.w3.org/2000/svg" width="20" height="24" viewBox="0 0 20 24">
  <metadata><?xpacket begin="﻿" id="W5M0MpCehiHzreSzNTczkc9d"?>
<x:xmpmeta xmlns:x="adobe:ns:meta/" x:xmptk="Adobe XMP Core 5.6-c138 79.159824, 2016/09/14-01:09:01        ">
   <rdf:RDF xmlns:rdf="http://www.w3.org/1999/02/22-rdf-syntax-ns#">
      <rdf:Description rdf:about=""/>
   </rdf:RDF>
</x:xmpmeta>
                                                                                                    
                                                                                                    
                                                                                                    
                                                                                                    
                                                                                                    
                                                                                                    
                                                                                                    
                                                                                                    
                                                                                                    
                                                                                                    
                                                                                                    
                                                                                                    
                                                                                                    
                                                                                                    
                                                                                                    
                                                                                                    
                                                                                                    
                                                                                                    
                                                                                                    
                                                                                                    
                           
<?xpacket end="w"?></metadata>
<defs>
    <style>
      .cls-1 {
        fill: #2bdafa;
        fill-rule: evenodd;
      }
    </style>
  </defs>
  <path id="Forma_1" data-name="Forma 1" class="cls-1" d="M1429,613.18c-0.01-.648-0.02-1.26-0.02-1.852a0.842,0.842,0,0,0-.84-0.84,11.444,11.444,0,0,1-8.54-3.25,0.826,0.826,0,0,0-1.16,0,11.444,11.444,0,0,1-8.54,3.25,0.836,0.836,0,0,0-.84.84c0,0.592-.01,1.2-0.02,1.853-0.12,6.03-.27,14.288,9.71,17.772a0.759,0.759,0,0,0,.27.047,0.8,0.8,0,0,0,.27-0.047C1429.27,627.469,1429.12,619.21,1429,613.18Zm-9.98,16.088c-8.56-3.132-8.43-9.994-8.32-16.055,0.01-.364.02-0.717,0.02-1.062a12.828,12.828,0,0,0,8.3-3.168,12.822,12.822,0,0,0,8.3,3.168c0,0.345.01,0.7,0.01,1.061C1427.45,619.274,1427.58,626.136,1419.02,629.268Zm2.87-13.186-4.02,4.055-1.72-1.731a0.837,0.837,0,1,0-1.18,1.188l2.31,2.324a0.813,0.813,0,0,0,.59.246,0.847,0.847,0,0,0,.59-0.246l4.61-4.648A0.837,0.837,0,0,0,1421.89,616.082Z" transform="translate(-1409.03 -607)"/>
</svg>
