<?xml version="1.0" encoding="utf-8"?>
<!-- Generator: Adobe Illustrator 21.1.0, SVG Export Plug-In . SVG Version: 6.00 Build 0)  -->
<svg version="1.1" id="Слой_1" xmlns="http://www.w3.org/2000/svg" xmlns:xlink="http://www.w3.org/1999/xlink" x="0px" y="0px"
	 viewBox="0 0 60 43" style="enable-background:new 0 0 60 43;" xml:space="preserve">
<path d="M38.7,22.7c-0.1-0.4-0.4-0.6-0.8-0.7L33,21.3l-2.2-4.4c-0.2-0.5-0.8-0.7-1.3-0.4c-0.2,0.1-0.3,0.2-0.4,0.4l-2.2,4.4L22.1,22
	c-0.4,0.1-0.7,0.3-0.8,0.7c-0.1,0.4,0,0.7,0.3,1l3.5,3.5L24.2,32c-0.1,0.5,0.2,1,0.8,1.1c0.2,0,0.4,0,0.6-0.1l4.4-2.3l4.4,2.3
	c0.3,0.2,0.7,0.1,1-0.1c0.3-0.2,0.4-0.6,0.4-1l-0.8-4.9l3.5-3.5C38.7,23.4,38.8,23,38.7,22.7z M33.2,26.1c-0.2,0.2-0.3,0.6-0.3,0.9
	l0.6,3.4l-3.1-1.6c-0.3-0.2-0.6-0.2-0.9,0l-3.1,1.6L27,27c0.1-0.3-0.1-0.6-0.3-0.9l-2.5-2.4l3.4-0.5c0.3,0,0.6-0.3,0.7-0.5l1.6-3.1
	l1.5,3.1c0.1,0.3,0.4,0.5,0.7,0.5l3.4,0.5L33.2,26.1z M13.7,17c4.1,0,7.7-2.6,9.1-6.4c0.2-0.5-0.1-1.1-0.6-1.3
	c-2.4-0.9-5-0.7-7.3,0.4c0.6-0.8,1.2-1.5,1.9-2.2c0.4-0.4,0.4-1,0-1.4c-0.4-0.4-1-0.4-1.4,0c0,0,0,0,0,0c-0.5,0.5-1,1-1.4,1.6
	c-0.1-3-1.6-5.8-4-7.5C9.6-0.1,9,0,8.6,0.4c-2.9,4.2-2.2,9.9,1.8,13.1c-0.3,0.7-0.6,1.5-0.8,2.3c-0.2-0.4-0.4-0.8-0.7-1.3
	c-1.4-2.2-3.5-3.7-6-4.2c-0.5-0.1-1,0.2-1.1,0.7c0,0,0,0,0,0c-1.1,5,1.8,10,6.7,11.4c0,1,0,2.1,0.1,3.1c-0.2-0.2-0.5-0.4-0.7-0.6
	c-2-1.5-4.6-2.2-7.1-1.8c-0.5,0.1-0.9,0.6-0.8,1.1c0.4,2.5,1.7,4.8,3.8,6.3c1.6,1.2,3.6,1.9,5.7,1.9c0.3,0,0.7,0,1-0.1
	c0.4,0.9,0.9,1.8,1.4,2.7c-3.1-1-6.5-0.4-9,1.7c-0.4,0.3-0.5,1-0.1,1.4c1.6,2,3.9,3.2,6.5,3.5c0.3,0,0.7,0.1,1,0.1
	c2,0,3.9-0.6,5.5-1.8c1.1,1.1,2.3,2,3.6,2.9c0.2,0.1,0.3,0.2,0.5,0.2c0.3,0,0.6-0.2,0.8-0.4c0.3-0.5,0.2-1.1-0.3-1.4
	c-1.2-0.8-2.4-1.8-3.4-2.8c-2.3-2.3-4-5-5.1-8c4.7-1.8,7.1-6.9,5.8-11.7c-0.1-0.5-0.7-0.8-1.2-0.7c0,0,0,0,0,0
	c-2.4,0.7-4.5,2.4-5.7,4.6c0,0.1-0.1,0.1-0.1,0.2c0-2.1,0.3-4.2,0.9-6.1C12.1,16.9,12.9,17,13.7,17L13.7,17z M8.5,20.3
	c-3.2-1.2-5.2-4.4-5-7.9c1.6,0.6,2.9,1.7,3.8,3.1C8.2,17,8.6,18.7,8.5,20.3L8.5,20.3z M4.9,29c-1.4-1-2.3-2.4-2.8-4h0.1
	c3.4,0,6.4,2.3,7.3,5.5C7.9,30.6,6.3,30,4.9,29L4.9,29z M12.3,23.6c0.8-1.5,2.1-2.7,3.6-3.3c0.5,3.4-1.3,6.7-4.4,8.2
	C11.1,26.8,11.4,25.1,12.3,23.6L12.3,23.6z M8.9,7.3c-0.3-1.7,0-3.4,0.8-4.9c2.5,2.4,3.1,6.1,1.5,9.2C10,10.5,9.2,9,8.9,7.3L8.9,7.3
	z M50.5,32.5c2,0,4-0.7,5.7-1.9c2.1-1.5,3.4-3.8,3.8-6.3c0.1-0.5-0.3-1-0.8-1.1c-2.8-0.4-5.7,0.4-7.8,2.4c0.1-1,0.2-2.1,0.1-3.1
	c2.3-0.6,4.2-2.1,5.5-4.1c1.4-2.2,1.8-4.8,1.3-7.3c-0.1-0.5-0.6-0.8-1.1-0.7c0,0,0,0,0,0c-2.5,0.6-4.7,2.1-6,4.2
	c-0.3,0.4-0.5,0.8-0.7,1.3c-0.2-0.8-0.5-1.5-0.8-2.3c3.9-3.2,4.7-8.9,1.8-13.1C51.2,0.2,51,0.1,50.7,0c-0.3,0-0.5,0-0.7,0.2
	c-2.1,1.5-3.5,3.7-3.9,6.3C46,6.9,46,7.3,46,7.7c-0.4-0.5-0.9-1.1-1.4-1.6c-0.4-0.4-1-0.4-1.4,0c0,0,0,0,0,0c-0.4,0.4-0.4,1,0,1.4
	c0.7,0.7,1.3,1.4,1.9,2.2c-2.3-1.1-4.9-1.2-7.3-0.4c-0.5,0.2-0.8,0.7-0.6,1.3c1.4,3.8,5,6.4,9.1,6.4c0.8,0,1.6-0.1,2.4-0.3
	c0.6,2,0.9,4.1,0.9,6.2c-1.2-2.4-3.3-4.1-5.8-4.9c-0.5-0.2-1,0.1-1.2,0.6c0,0,0,0,0,0c-1.4,4.8,1.1,9.9,5.8,11.7
	c-1.1,3-2.8,5.8-5.1,8c-1,1-2.2,2-3.4,2.8c-0.4,0.3-0.6,0.9-0.3,1.4c0.2,0.3,0.5,0.4,0.8,0.4c0.2,0,0.4-0.1,0.5-0.2
	c1.3-0.8,2.5-1.8,3.6-2.9c4.1,2.9,9.8,2.1,12.9-1.8c0.2-0.2,0.2-0.5,0.2-0.7c0-0.3-0.2-0.5-0.3-0.7c-2-1.6-4.5-2.4-7-2.1
	c-0.7,0.1-1.3,0.2-2,0.4c0.5-0.9,1-1.8,1.4-2.7C49.9,32.4,50.2,32.5,50.5,32.5L50.5,32.5z M56.5,12.5c0.1,1.7-0.3,3.3-1.2,4.8
	c-0.9,1.4-2.2,2.5-3.8,3.1C51.2,16.9,53.3,13.7,56.5,12.5L56.5,12.5z M57.9,25c-1,3.3-4,5.5-7.5,5.5C51.4,27.2,54.4,25,57.9,25
	L57.9,25z M39.5,10.9c3.4-0.7,6.8,0.9,8.4,4C44.4,15.6,41,14,39.5,10.9L39.5,10.9z M48.8,11.6c-1.6-3.1-1-6.8,1.5-9.2
	C51.9,5.5,51.3,9.3,48.8,11.6L48.8,11.6z M48.6,28.4c-3.1-1.4-5-4.8-4.4-8.2C47.3,21.7,49.1,25,48.6,28.4L48.6,28.4z"/>
</svg>
