<svg xmlns="http://www.w3.org/2000/svg" width="50" height="49" viewBox="0 0 50 49">
  <metadata><?xpacket begin="﻿" id="W5M0MpCehiHzreSzNTczkc9d"?>
<x:xmpmeta xmlns:x="adobe:ns:meta/" x:xmptk="Adobe XMP Core 5.6-c138 79.159824, 2016/09/14-01:09:01        ">
   <rdf:RDF xmlns:rdf="http://www.w3.org/1999/02/22-rdf-syntax-ns#">
      <rdf:Description rdf:about=""/>
   </rdf:RDF>
</x:xmpmeta>
                                                                                                    
                                                                                                    
                                                                                                    
                                                                                                    
                                                                                                    
                                                                                                    
                                                                                                    
                                                                                                    
                                                                                                    
                                                                                                    
                                                                                                    
                                                                                                    
                                                                                                    
                                                                                                    
                                                                                                    
                                                                                                    
                                                                                                    
                                                                                                    
                                                                                                    
                                                                                                    
                           
<?xpacket end="w"?></metadata>
<defs>
    <style>
      .cls-1 {
        fill: #fcfcfc;
        fill-rule: evenodd;
      }
    </style>
  </defs>
  <path class="cls-1" d="M395.24,1978.2c0.487,0.29.969,0.61,1.431,0.94a1.023,1.023,0,0,0,.577.18,0.992,0.992,0,0,0,.578-1.8c-0.5-.36-1.027-0.7-1.557-1.02a1,1,0,0,0-1.367.34A0.987,0.987,0,0,0,395.24,1978.2Zm11.739,18.1a24.554,24.554,0,0,0-24.577,23.68,22.517,22.517,0,1,1,9.821-43.3,0.991,0.991,0,1,0,.761-1.83,24.521,24.521,0,1,0-9.607,47.15h0.215a24.553,24.553,0,0,0,24.592-24.5A1.094,1.094,0,0,0,406.979,1996.3Zm-21.188,23.61,7.589-7.56a1,1,0,0,0,0-1.41,1.013,1.013,0,0,0-1.409,0l-7.462,7.44a22.6,22.6,0,0,1,21.669-20.08A22.589,22.589,0,0,1,385.791,2019.91Zm9.808-10.18a1.009,1.009,0,0,0,.7-0.29l1.619-1.62a0.993,0.993,0,1,0-1.409-1.4l-1.618,1.61a1,1,0,0,0,0,1.41A1.009,1.009,0,0,0,395.6,2009.73Zm13.112-25.37-1.872-1.86,0.429-.43a1,1,0,0,0,.292-0.7,0.964,0.964,0,0,0-.292-0.7l-1.6-1.6a4.335,4.335,0,0,0-6.131,0l-0.893.89a4.3,4.3,0,0,0,0,6.1l1.606,1.6a1,1,0,0,0,1.408,0l0.429-.42,1.872,1.86a1,1,0,0,0,1.408,0,0.986,0.986,0,0,0,0-1.4l-1.871-1.87,1.94-1.93,1.871,1.86A0.993,0.993,0,0,0,408.711,1984.36Zm-7.762,1.2-0.9-.9a2.327,2.327,0,0,1,0-3.3l0.893-.89a2.358,2.358,0,0,1,3.313,0l0.9,0.9Z" transform="translate(-359 -1973)"/>
</svg>
